<svg xmlns="http://www.w3.org/2000/svg" width="512" height="512" fill="none"><path stroke="#fff" stroke-width="36" d="M116.63 231.84V0M231.68 111.97H0"/><path fill="#fff" d="M318.41 105.77a11.1 11.1 0 1 0 0-22.18 11.1 11.1 0 0 0 0 22.18ZM286.89 105.77a11.1 11.1 0 1 0 0-22.18 11.1 11.1 0 0 0 0 22.18ZM348.83 105.77a11.09 11.09 0 1 0-.01-22.18 11.09 11.09 0 0 0 0 22.18ZM379.25 105.77a11.09 11.09 0 1 0-.01-22.18 11.09 11.09 0 0 0 0 22.18ZM409.66 105.77a11.09 11.09 0 1 0 0-22.18 11.09 11.09 0 0 0 0 22.18ZM440.08 105.77a11.1 11.1 0 1 0 0-22.18 11.1 11.1 0 0 0 0 22.18ZM470.5 105.77a11.09 11.09 0 1 0-.01-22.18 11.09 11.09 0 0 0 0 22.18ZM500.91 105.77a11.1 11.1 0 1 0 0-22.18 11.1 11.1 0 0 0 0 22.18ZM318.41 139.06a11.1 11.1 0 1 0 0-22.18 11.1 11.1 0 0 0 0 22.18ZM286.89 139.06a11.1 11.1 0 1 0 0-22.18 11.1 11.1 0 0 0 0 22.18ZM348.83 139.06a11.09 11.09 0 1 0-.01-22.18 11.09 11.09 0 0 0 0 22.18ZM379.25 139.06a11.09 11.09 0 1 0-.01-22.18 11.09 11.09 0 0 0 0 22.18ZM409.66 139.06a11.09 11.09 0 1 0 0-22.18 11.09 11.09 0 0 0 0 22.18ZM440.08 139.06a11.1 11.1 0 1 0 0-22.18 11.1 11.1 0 0 0 0 22.18ZM470.5 139.06a11.09 11.09 0 1 0-.01-22.18 11.09 11.09 0 0 0 0 22.18ZM500.91 139.06a11.1 11.1 0 1 0 0-22.18 11.1 11.1 0 0 0 0 22.18ZM470.5 172.34a11.09 11.09 0 1 0-.01-22.18 11.09 11.09 0 0 0 0 22.18ZM500.91 172.34a11.1 11.1 0 1 0 0-22.18 11.1 11.1 0 0 0 0 22.18ZM470.5 205.62a11.09 11.09 0 1 0-.01-22.18 11.09 11.09 0 0 0 0 22.18ZM500.91 205.62a11.1 11.1 0 1 0 0-22.18 11.1 11.1 0 0 0 0 22.18ZM470.5 238.9a11.09 11.09 0 1 0-.01-22.18 11.09 11.09 0 0 0 0 22.18ZM500.91 238.9a11.1 11.1 0 1 0 0-22.18 11.1 11.1 0 0 0 0 22.18ZM470.5 272.19a11.09 11.09 0 1 0-.01-22.18 11.09 11.09 0 0 0 0 22.18ZM500.91 272.19a11.1 11.1 0 1 0 0-22.18 11.1 11.1 0 0 0 0 22.18ZM470.5 305.47a11.09 11.09 0 1 0-.01-22.18 11.09 11.09 0 0 0 0 22.18ZM500.91 305.47a11.1 11.1 0 1 0 0-22.18 11.1 11.1 0 0 0 0 22.18ZM470.5 338.75a11.09 11.09 0 1 0-.01-22.18 11.09 11.09 0 0 0 0 22.18ZM500.91 338.75a11.1 11.1 0 1 0 0-22.18 11.1 11.1 0 0 0 0 22.18ZM470.5 372.03a11.09 11.09 0 1 0-.01-22.18 11.09 11.09 0 0 0 0 22.18ZM500.91 372.03a11.1 11.1 0 1 0 0-22.18 11.1 11.1 0 0 0 0 22.18ZM470.5 405.32a11.09 11.09 0 1 0-.01-22.18 11.09 11.09 0 0 0 0 22.18ZM470.5 438.54a11.09 11.09 0 1 0-.01-22.18 11.09 11.09 0 0 0 0 22.18ZM470.5 471.77a11.09 11.09 0 1 0-.01-22.18 11.09 11.09 0 0 0 0 22.18ZM439.76 471.77a11.1 11.1 0 1 0 0-22.18 11.1 11.1 0 0 0 0 22.18ZM409.03 471.77a11.1 11.1 0 1 0 0-22.18 11.1 11.1 0 0 0 0 22.18ZM378.3 471.77a11.1 11.1 0 1 0 0-22.18 11.1 11.1 0 0 0 0 22.18ZM347.57 471.77a11.1 11.1 0 1 0 0-22.18 11.1 11.1 0 0 0 0 22.18ZM316.84 471.77a11.1 11.1 0 1 0 0-22.18 11.1 11.1 0 0 0 0 22.18ZM286.11 471.77a11.1 11.1 0 1 0 0-22.18 11.1 11.1 0 0 0 0 22.18ZM255.38 471.77a11.1 11.1 0 1 0 0-22.18 11.1 11.1 0 0 0 0 22.18ZM224.65 471.77a11.09 11.09 0 1 0-.01-22.18 11.09 11.09 0 0 0 0 22.18ZM193.92 471.77a11.1 11.1 0 1 0-.01-22.18 11.1 11.1 0 0 0 0 22.18ZM163.19 471.77a11.09 11.09 0 1 0-.01-22.18 11.09 11.09 0 0 0 0 22.18ZM132.46 471.77a11.09 11.09 0 1 0-.01-22.18 11.09 11.09 0 0 0 0 22.18ZM132.46 438.54a11.09 11.09 0 1 0-.01-22.18 11.09 11.09 0 0 0 0 22.18ZM132.46 405.32a11.09 11.09 0 1 0-.01-22.18 11.09 11.09 0 0 0 0 22.18ZM132.46 372.09a11.09 11.09 0 1 0-.01-22.18 11.09 11.09 0 0 0 0 22.18ZM132.46 338.86a11.09 11.09 0 1 0-.01-22.18 11.09 11.09 0 0 0 0 22.18ZM132.46 305.63a11.09 11.09 0 1 0-.01-22.18 11.09 11.09 0 0 0 0 22.18ZM101.72 471.77a11.09 11.09 0 1 0 0-22.18 11.09 11.09 0 0 0 0 22.18ZM101.72 438.54a11.09 11.09 0 1 0 0-22.18 11.09 11.09 0 0 0 0 22.18ZM101.72 405.32a11.09 11.09 0 1 0 0-22.18 11.09 11.09 0 0 0 0 22.18ZM101.72 372.09a11.09 11.09 0 1 0 0-22.18 11.09 11.09 0 0 0 0 22.18ZM101.72 338.86a11.09 11.09 0 1 0 0-22.18 11.09 11.09 0 0 0 0 22.18ZM101.72 305.63a11.09 11.09 0 1 0 0-22.18 11.09 11.09 0 0 0 0 22.18ZM470.5 505a11.09 11.09 0 1 0-.01-22.18 11.09 11.09 0 0 0 0 22.18ZM439.76 505a11.1 11.1 0 1 0 0-22.18 11.1 11.1 0 0 0 0 22.18ZM409.03 505a11.1 11.1 0 1 0 0-22.18 11.1 11.1 0 0 0 0 22.18ZM378.3 505a11.1 11.1 0 1 0 0-22.18 11.1 11.1 0 0 0 0 22.18ZM347.57 505a11.1 11.1 0 1 0 0-22.18 11.1 11.1 0 0 0 0 22.18ZM316.84 505a11.1 11.1 0 1 0 0-22.18 11.1 11.1 0 0 0 0 22.18ZM286.11 505a11.1 11.1 0 1 0 0-22.18 11.1 11.1 0 0 0 0 22.18ZM255.38 505a11.1 11.1 0 1 0 0-22.18 11.1 11.1 0 0 0 0 22.18ZM224.65 505a11.09 11.09 0 1 0-.01-22.18 11.09 11.09 0 0 0 0 22.18ZM193.92 505a11.1 11.1 0 1 0-.01-22.18 11.1 11.1 0 0 0 0 22.18ZM163.19 505a11.09 11.09 0 1 0-.01-22.18 11.09 11.09 0 0 0 0 22.18ZM132.46 505a11.09 11.09 0 1 0-.01-22.18 11.09 11.09 0 0 0 0 22.18ZM101.72 505a11.09 11.09 0 1 0 0-22.18 11.09 11.09 0 0 0 0 22.18ZM500.91 405.32a11.1 11.1 0 1 0 0-22.18 11.1 11.1 0 0 0 0 22.18ZM500.91 438.54a11.1 11.1 0 1 0 0-22.18 11.1 11.1 0 0 0 0 22.18ZM500.91 471.77a11.1 11.1 0 1 0 0-22.18 11.1 11.1 0 0 0 0 22.18ZM500.91 505a11.1 11.1 0 1 0 0-22.18 11.1 11.1 0 0 0 0 22.18Z"/></svg>