<svg xmlns="http://www.w3.org/2000/svg" width="500" height="500" fill="none"><path stroke="#000" stroke-width="36" d="M129 208V61M202 132H55"/><circle cx="257.03" cy="121.03" r="7.03" fill="#484848"/><circle cx="237.03" cy="121.03" r="7.03" fill="#484848"/><circle cx="276.33" cy="121.03" r="7.03" fill="#484848"/><circle cx="295.63" cy="121.03" r="7.03" fill="#484848"/><circle cx="314.93" cy="121.03" r="7.03" fill="#484848"/><circle cx="334.23" cy="121.03" r="7.03" fill="#484848"/><circle cx="353.53" cy="121.03" r="7.03" fill="#484848"/><circle cx="372.83" cy="121.03" r="7.03" fill="#484848"/><circle cx="257.03" cy="142.14" r="7.03" fill="#484848"/><circle cx="237.03" cy="142.14" r="7.03" fill="#484848"/><circle cx="276.33" cy="142.14" r="7.03" fill="#484848"/><circle cx="295.63" cy="142.14" r="7.03" fill="#484848"/><circle cx="314.93" cy="142.14" r="7.03" fill="#484848"/><circle cx="334.23" cy="142.14" r="7.03" fill="#484848"/><circle cx="353.53" cy="142.14" r="7.03" fill="#484848"/><circle cx="372.83" cy="142.14" r="7.03" fill="#484848"/><circle cx="353.53" cy="163.24" r="7.03" fill="#484848"/><circle cx="372.83" cy="163.24" r="7.03" fill="#484848"/><circle cx="353.53" cy="184.34" r="7.03" fill="#484848"/><circle cx="372.83" cy="184.34" r="7.03" fill="#484848"/><circle cx="353.53" cy="205.45" r="7.03" fill="#484848"/><circle cx="372.83" cy="205.45" r="7.03" fill="#484848"/><circle cx="353.53" cy="226.55" r="7.03" fill="#484848"/><circle cx="372.83" cy="226.55" r="7.03" fill="#484848"/><circle cx="353.53" cy="247.66" r="7.03" fill="#484848"/><circle cx="372.83" cy="247.66" r="7.03" fill="#484848"/><circle cx="353.53" cy="268.76" r="7.03" fill="#484848"/><circle cx="372.83" cy="268.76" r="7.03" fill="#484848"/><circle cx="353.53" cy="289.86" r="7.03" fill="#484848"/><circle cx="372.83" cy="289.86" r="7.03" fill="#484848"/><circle cx="353.53" cy="310.97" r="7.03" fill="#484848"/><circle cx="353.53" cy="332.03" r="7.03" fill="#484848"/><circle cx="353.53" cy="353.1" r="7.03" fill="#484848"/><circle cx="334.03" cy="353.1" r="7.03" fill="#484848"/><circle cx="314.54" cy="353.1" r="7.03" fill="#484848"/><circle cx="295.04" cy="353.1" r="7.03" fill="#484848"/><circle cx="275.54" cy="353.1" r="7.03" fill="#484848"/><circle cx="256.04" cy="353.1" r="7.03" fill="#484848"/><circle cx="236.54" cy="353.1" r="7.03" fill="#484848"/><circle cx="217.04" cy="353.1" r="7.03" fill="#484848"/><circle cx="197.54" cy="353.1" r="7.03" fill="#484848"/><circle cx="178.04" cy="353.1" r="7.03" fill="#484848"/><circle cx="158.54" cy="353.1" r="7.03" fill="#484848"/><circle cx="139.04" cy="353.1" r="7.03" fill="#484848"/><circle cx="139.04" cy="332.03" r="7.03" fill="#484848"/><circle cx="139.04" cy="310.97" r="7.03" fill="#484848"/><circle cx="139.04" cy="289.9" r="7.03" fill="#484848"/><circle cx="139.04" cy="268.83" r="7.03" fill="#484848"/><circle cx="139.04" cy="247.76" r="7.03" fill="#484848"/><circle cx="119.55" cy="353.1" r="7.03" fill="#484848"/><circle cx="119.55" cy="332.03" r="7.03" fill="#484848"/><circle cx="119.55" cy="310.97" r="7.03" fill="#484848"/><circle cx="119.55" cy="289.9" r="7.03" fill="#484848"/><circle cx="119.55" cy="268.83" r="7.03" fill="#484848"/><circle cx="119.55" cy="247.76" r="7.03" fill="#484848"/><circle cx="353.53" cy="374.17" r="7.03" fill="#484848"/><circle cx="334.03" cy="374.17" r="7.03" fill="#484848"/><circle cx="314.54" cy="374.17" r="7.03" fill="#484848"/><circle cx="295.04" cy="374.17" r="7.03" fill="#484848"/><circle cx="275.54" cy="374.17" r="7.03" fill="#484848"/><circle cx="256.04" cy="374.17" r="7.03" fill="#484848"/><circle cx="236.54" cy="374.17" r="7.03" fill="#484848"/><circle cx="217.04" cy="374.17" r="7.03" fill="#484848"/><circle cx="197.54" cy="374.17" r="7.03" fill="#484848"/><circle cx="178.04" cy="374.17" r="7.03" fill="#484848"/><circle cx="158.54" cy="374.17" r="7.03" fill="#484848"/><circle cx="139.04" cy="374.17" r="7.03" fill="#484848"/><circle cx="119.55" cy="374.17" r="7.03" fill="#484848"/><circle cx="372.83" cy="310.97" r="7.03" fill="#484848"/><circle cx="372.83" cy="332.03" r="7.03" fill="#484848"/><circle cx="372.83" cy="353.1" r="7.03" fill="#484848"/><circle cx="372.83" cy="374.17" r="7.03" fill="#484848"/></svg>