<svg xmlns="http://www.w3.org/2000/svg" width="512" height="512" fill="none"><path fill="#fff" d="M50 131a81 81 0 0 1 81-81h250a81 81 0 0 1 81 81v250a81 81 0 0 1-81 81H131a81 81 0 0 1-81-81V131Z"/><path stroke="#000" stroke-width="29" d="M163.91 228.67V107.54m60.16 58.5H102.94"/><path fill="#484848" d="M269.2 162.87a5.8 5.8 0 1 0 0-11.6 5.8 5.8 0 0 0 0 11.6Zm-16.48 0a5.8 5.8 0 1 0 0-11.6 5.8 5.8 0 0 0 0 11.6Zm32.39 0a5.8 5.8 0 1 0 0-11.6 5.8 5.8 0 0 0 0 11.6Zm15.9 0a5.8 5.8 0 1 0 0-11.6 5.8 5.8 0 0 0 0 11.6Zm15.9 0a5.8 5.8 0 1 0 0-11.6 5.8 5.8 0 0 0 0 11.6Zm15.9 0a5.8 5.8 0 1 0 0-11.6 5.8 5.8 0 0 0 0 11.6Zm15.9 0a5.8 5.8 0 1 0 .01-11.6 5.8 5.8 0 0 0 0 11.6Zm15.91 0a5.8 5.8 0 1 0 0-11.6 5.8 5.8 0 0 0 0 11.6Zm-95.42 17.38a5.8 5.8 0 1 0 0-11.59 5.8 5.8 0 0 0 0 11.6Zm-16.48 0a5.8 5.8 0 1 0 0-11.59 5.8 5.8 0 0 0 0 11.6Zm32.39 0a5.8 5.8 0 1 0 0-11.59 5.8 5.8 0 0 0 0 11.6Zm15.9 0a5.8 5.8 0 1 0 0-11.6 5.8 5.8 0 0 0 0 11.6Zm15.9 0a5.8 5.8 0 1 0 0-11.6 5.8 5.8 0 0 0 0 11.6Zm15.9 0a5.8 5.8 0 1 0 0-11.6 5.8 5.8 0 0 0 0 11.6Zm15.9 0a5.8 5.8 0 1 0 0-11.59 5.8 5.8 0 0 0 0 11.6Zm15.91 0a5.8 5.8 0 1 0 0-11.59 5.8 5.8 0 0 0 0 11.6Zm-15.9 17.4a5.8 5.8 0 1 0 0-11.6 5.8 5.8 0 0 0 0 11.6Zm15.9 0a5.8 5.8 0 1 0 .45-11.58 5.8 5.8 0 0 0-.45 11.58Zm-15.9 17.38a5.8 5.8 0 1 0 0-11.59 5.8 5.8 0 0 0 0 11.6Zm15.9 0a5.81 5.81 0 1 0 .44-11.61 5.81 5.81 0 0 0-.44 11.62Zm-15.9 17.4a5.8 5.8 0 1 0 0-11.6 5.8 5.8 0 0 0 0 11.6Zm15.9 0a5.8 5.8 0 1 0 .44-11.59 5.8 5.8 0 0 0-.44 11.58Zm-15.9 17.39a5.8 5.8 0 1 0 0-11.62 5.8 5.8 0 0 0 0 11.62Zm15.9 0a5.81 5.81 0 1 0 .44-11.62 5.81 5.81 0 0 0-.44 11.62Zm-15.9 17.38a5.8 5.8 0 1 0 0-11.58 5.8 5.8 0 0 0 0 11.58Zm15.9 0a5.8 5.8 0 1 0 .44-11.58 5.8 5.8 0 0 0-.44 11.58Zm-15.9 17.4a5.8 5.8 0 1 0 0-11.59 5.8 5.8 0 0 0 0 11.58Zm15.9 0a5.8 5.8 0 1 0 0-11.6 5.8 5.8 0 0 0 0 11.59Zm-15.9 17.38a5.8 5.8 0 1 0 0-11.58 5.8 5.8 0 0 0 0 11.58Zm15.9 0a5.78 5.78 0 0 0 6.02-5.8 5.79 5.79 0 1 0-6.02 5.8Zm-15.9 17.39a5.8 5.8 0 1 0 0-11.6 5.8 5.8 0 0 0 0 11.6Zm0 17.36a5.8 5.8 0 1 0 0-11.58 5.8 5.8 0 0 0 0 11.58Zm0 17.36a5.8 5.8 0 1 0 0-11.59 5.8 5.8 0 0 0 0 11.6Zm-16.07 0a5.8 5.8 0 1 0 0-11.59 5.8 5.8 0 0 0 0 11.6Zm-16.06 0a5.8 5.8 0 1 0 0-11.59 5.8 5.8 0 0 0 0 11.6Zm-16.07 0a5.8 5.8 0 1 0 0-11.59 5.8 5.8 0 0 0 0 11.6Zm-16.06 0a5.8 5.8 0 1 0 0-11.59 5.8 5.8 0 0 0 0 11.6Zm-16.07 0a5.81 5.81 0 1 0 .43-11.61 5.81 5.81 0 0 0-.43 11.61Zm-16.07 0a5.8 5.8 0 1 0 0-11.59 5.8 5.8 0 0 0 0 11.6Zm-16.07 0a5.8 5.8 0 1 0 0-11.59 5.8 5.8 0 0 0 0 11.6Zm-16.07 0a5.8 5.8 0 1 0 0-11.59 5.8 5.8 0 0 0 0 11.6Zm-16.06 0a5.81 5.81 0 1 0 .43-11.61 5.81 5.81 0 0 0-.44 11.61Zm-16.07 0a5.81 5.81 0 1 0 .43-11.61 5.81 5.81 0 0 0-.43 11.61Zm-16.07 0a5.81 5.81 0 1 0 .43-11.61 5.81 5.81 0 0 0-.43 11.61Zm0-17.36a5.8 5.8 0 1 0 0-11.58 5.8 5.8 0 0 0 0 11.58Zm0-17.36a5.81 5.81 0 1 0 .43-11.62 5.81 5.81 0 0 0-.43 11.62Zm0-17.36a5.81 5.81 0 1 0 .43-11.62 5.81 5.81 0 0 0-.43 11.62Zm0-17.36a5.8 5.8 0 1 0 0-11.59 5.8 5.8 0 0 0 0 11.59Zm0-17.36a5.8 5.8 0 1 0 0-11.6 5.8 5.8 0 0 0 0 11.6Zm-16.06 86.8a5.8 5.8 0 1 0 0-11.6 5.8 5.8 0 0 0 0 11.6Zm0-17.36a5.8 5.8 0 1 0 0-11.59 5.8 5.8 0 0 0 0 11.6Zm0-17.36a5.8 5.8 0 1 0 0-11.6 5.8 5.8 0 0 0 0 11.6Zm0-17.36a5.8 5.8 0 1 0 0-11.6 5.8 5.8 0 0 0 0 11.6Zm0-17.36a5.8 5.8 0 1 0 0-11.6 5.8 5.8 0 0 0 0 11.6Zm0-17.36a5.8 5.8 0 1 0 0-11.58 5.8 5.8 0 0 0 0 11.58Zm192.8 104.16a5.8 5.8 0 1 0 0-11.6 5.8 5.8 0 0 0 0 11.6Zm-16.07 0a5.8 5.8 0 1 0 0-11.6 5.8 5.8 0 0 0 0 11.6Zm-16.06 0a5.8 5.8 0 1 0 0-11.6 5.8 5.8 0 0 0 0 11.6Zm-16.07 0a5.8 5.8 0 1 0 0-11.6 5.8 5.8 0 0 0 0 11.6Zm-16.06 0a5.8 5.8 0 1 0 0-11.6 5.8 5.8 0 0 0 0 11.6Zm-16.07 0a5.8 5.8 0 1 0 0-11.6 5.8 5.8 0 0 0 0 11.6Zm-16.07 0a5.8 5.8 0 1 0 0-11.6 5.8 5.8 0 0 0 0 11.6Zm-16.07 0a5.8 5.8 0 1 0 0-11.6 5.8 5.8 0 0 0 0 11.6Zm-16.07 0a5.8 5.8 0 1 0 0-11.6 5.8 5.8 0 0 0 0 11.6Zm-16.06 0a5.8 5.8 0 1 0 0-11.6 5.8 5.8 0 0 0 0 11.6Zm-16.07 0a5.8 5.8 0 1 0 0-11.6 5.8 5.8 0 0 0 0 11.6Zm-16.07 0a5.8 5.8 0 1 0 0-11.6 5.8 5.8 0 0 0 0 11.6Zm-16.06 0a5.8 5.8 0 1 0 0-11.61 5.8 5.8 0 0 0 0 11.62v-.01Zm208.7-52.08a5.81 5.81 0 1 0 .44-11.62 5.81 5.81 0 0 0-.44 11.62Zm0 17.36a5.8 5.8 0 1 0 0-11.58 5.8 5.8 0 0 0 0 11.58Zm0 17.36a5.81 5.81 0 1 0 .44-11.61 5.81 5.81 0 0 0-.44 11.61Zm0 17.36a5.8 5.8 0 1 0 0-11.6 5.8 5.8 0 0 0 0 11.6Z"/></svg>