<svg xmlns="http://www.w3.org/2000/svg" width="44" height="44" fill="none"><mask id="mask0_1_33" width="28" height="27" x="10" y="11" maskUnits="userSpaceOnUse" style="mask-type:alpha"><path fill="#484848" d="M31.33 11.33 32.5 18c-3.68 0-17 11.82-17 15.5l-5-.5c0 3.68 3.82 5 7.5 5h13.33A6.67 6.67 0 0 0 38 31.33V18a6.67 6.67 0 0 0-6.67-6.67Z"/></mask><g mask="url(#mask0_1_33)"><path stroke="#fff" stroke-width="2" d="M31 12H17.67A5.67 5.67 0 0 0 12 17.67V31a5.67 5.67 0 0 0 5.67 5.67H31A5.67 5.67 0 0 0 36.67 31V17.67A5.67 5.67 0 0 0 31 12Z"/></g><path stroke="#fff" stroke-width="2" d="M27 8H13.67A5.67 5.67 0 0 0 8 13.67V27a5.67 5.67 0 0 0 5.67 5.67H27A5.67 5.67 0 0 0 32.67 27V13.67A5.67 5.67 0 0 0 27 8Z"/></svg>