<svg xmlns="http://www.w3.org/2000/svg" width="44" height="44" fill="none"><circle cx="32.63" cy="9.71" r="1.21" fill="#484848" transform="rotate(45 32.63 9.7)"/><circle cx="34.97" cy="12.05" r="1.21" fill="#484848" transform="rotate(45 34.97 12.05)"/><circle cx="30.07" cy="12.27" r="1.21" fill="#484848" transform="rotate(45 30.07 12.27)"/><circle cx="32.41" cy="14.61" r="1.21" fill="#484848" transform="rotate(45 32.4 14.6)"/><circle cx="27.51" cy="14.83" r="1.21" fill="#484848" transform="rotate(45 27.5 14.83)"/><circle cx="29.85" cy="17.17" r="1.21" fill="#484848" transform="rotate(45 29.85 17.17)"/><circle cx="24.95" cy="17.39" r="1.21" fill="#484848" transform="rotate(45 24.95 17.39)"/><circle cx="27.29" cy="19.73" r="1.21" fill="#484848" transform="rotate(45 27.29 19.73)"/><circle cx="22.39" cy="19.95" r="1.21" fill="#484848" transform="rotate(45 22.39 19.95)"/><circle cx="24.73" cy="22.29" r="1.21" fill="#484848" transform="rotate(45 24.73 22.29)"/><circle cx="19.83" cy="22.51" r="1.21" fill="#484848" transform="rotate(45 19.83 22.5)"/><circle cx="22.17" cy="24.85" r="1.21" fill="#484848" transform="rotate(45 22.17 24.85)"/><circle cx="17.27" cy="25.07" r="1.21" fill="#484848" transform="rotate(45 17.27 25.07)"/><circle cx="19.61" cy="27.41" r="1.21" fill="#484848" transform="rotate(45 19.6 27.4)"/><circle cx="14.71" cy="27.63" r="1.21" fill="#484848" transform="rotate(45 14.7 27.63)"/><circle cx="17.05" cy="29.97" r="1.21" fill="#484848" transform="rotate(45 17.05 29.97)"/><path fill="#3C3C3C" d="M15.5 32.5 12 29l-2 5.5 5.5-2Z"/></svg>