<svg xmlns="http://www.w3.org/2000/svg" width="44" height="44" fill="none"><circle cx="1.26" cy="1.26" r="1.26" fill="#484848" transform="matrix(-1 0 0 1 33 15.1)"/><circle cx="1.26" cy="1.26" r="1.26" fill="#484848" transform="matrix(-1 0 0 1 29.55 15.1)"/><circle cx="1.26" cy="1.26" r="1.26" fill="#484848" transform="matrix(-1 0 0 1 26.1 15.1)"/><circle cx="1.26" cy="1.26" r="1.26" fill="#484848" transform="matrix(-1 0 0 1 22.64 15.1)"/><circle cx="1.26" cy="1.26" r="1.26" fill="#484848" transform="matrix(-1 0 0 1 19.19 15.1)"/><circle cx="1.26" cy="1.26" r="1.26" fill="#484848" transform="matrix(-1 0 0 1 15.73 15.1)"/><circle cx="1.26" cy="1.26" r="1.26" fill="#484848" transform="matrix(-1 0 0 1 33 18.88)"/><circle cx="1.26" cy="1.26" r="1.26" fill="#484848" transform="matrix(-1 0 0 1 29.55 18.88)"/><circle cx="1.26" cy="1.26" r="1.26" fill="#484848" transform="matrix(-1 0 0 1 26.1 18.88)"/><circle cx="1.26" cy="1.26" r="1.26" fill="#484848" transform="matrix(-1 0 0 1 22.64 18.88)"/><circle cx="1.26" cy="1.26" r="1.26" fill="#484848" transform="matrix(-1 0 0 1 19.19 18.88)"/><circle cx="1.26" cy="1.26" r="1.26" fill="#484848" transform="matrix(-1 0 0 1 15.73 18.88)"/><circle cx="1.26" cy="1.26" r="1.26" fill="#484848" transform="matrix(-1 0 0 1 12.28 18.88)"/><circle cx="1.26" cy="1.26" r="1.26" fill="#484848" transform="matrix(-1 0 0 1 15.73 22.66)"/><circle cx="1.26" cy="1.26" r="1.26" fill="#484848" transform="matrix(-1 0 0 1 12.28 22.66)"/><circle cx="1.26" cy="1.26" r="1.26" fill="#484848" transform="matrix(-1 0 0 1 15.73 26.43)"/><circle cx="1.26" cy="1.26" r="1.26" fill="#484848" transform="matrix(-1 0 0 1 12.28 26.43)"/><circle cx="1.26" cy="1.26" r="1.26" fill="#484848" transform="matrix(-1 0 0 1 15.73 30.21)"/><circle cx="1.26" cy="1.26" r="1.26" fill="#484848" transform="matrix(-1 0 0 1 12.28 30.21)"/><circle cx="1.26" cy="1.26" r="1.26" fill="#484848" transform="matrix(-1 0 0 1 15.73 33.99)"/><circle cx="1.26" cy="1.26" r="1.26" fill="#484848" transform="matrix(-1 0 0 1 12.28 33.99)"/><path stroke="#3C3C3C" stroke-width="2" d="m26 27 8.3-8.3a1 1 0 0 0 0-1.4L26 9"/></svg>