<svg xmlns="http://www.w3.org/2000/svg" width="44" height="44" fill="none"><circle cx="26.63" cy="13.41" r="1.21" fill="#484848" transform="rotate(45 26.63 13.41)"/><circle cx="28.97" cy="15.75" r="1.21" fill="#484848" transform="rotate(45 28.97 15.75)"/><circle cx="24.07" cy="15.97" r="1.21" fill="#484848" transform="rotate(45 24.07 15.97)"/><circle cx="26.41" cy="18.31" r="1.21" fill="#484848" transform="rotate(45 26.4 18.31)"/><circle cx="21.51" cy="18.53" r="1.21" fill="#484848" transform="rotate(45 21.5 18.53)"/><circle cx="23.85" cy="20.87" r="1.21" fill="#484848" transform="rotate(45 23.85 20.87)"/><circle cx="18.95" cy="21.09" r="1.21" fill="#484848" transform="rotate(45 18.95 21.09)"/><circle cx="21.29" cy="23.43" r="1.21" fill="#484848" transform="rotate(45 21.29 23.43)"/><circle cx="16.39" cy="23.65" r="1.21" fill="#484848" transform="rotate(45 16.39 23.65)"/><circle cx="18.73" cy="25.99" r="1.21" fill="#484848" transform="rotate(45 18.73 26)"/><circle cx="13.83" cy="26.21" r="1.21" fill="#484848" transform="rotate(45 13.83 26.21)"/><circle cx="16.17" cy="28.55" r="1.21" fill="#484848" transform="rotate(45 16.17 28.55)"/><circle cx="11.27" cy="28.77" r="1.21" fill="#484848" transform="rotate(45 11.27 28.77)"/><circle cx="13.61" cy="31.11" r="1.21" fill="#484848" transform="rotate(45 13.6 31.11)"/><circle cx="8.71" cy="31.33" r="1.21" fill="#484848" transform="rotate(45 8.7 31.33)"/><circle cx="11.05" cy="33.67" r="1.21" fill="#484848" transform="rotate(45 11.05 33.67)"/><path stroke="#3C3C3C" stroke-width="2" d="M17.6 10.95h12.89a1 1 0 0 1 1 1v12.89"/></svg>