<svg xmlns="http://www.w3.org/2000/svg" width="44" height="44" fill="none"><path stroke="#3C3C3C" stroke-width="2" d="M11 15.63c0-.59 0-.88.12-1.1a1 1 0 0 1 .4-.41c.23-.12.52-.12 1.11-.12h18.74c.59 0 .88 0 1.1.12a1 1 0 0 1 .41.4c.12.23.12.52.12 1.11v17.85c0 2.35 0 3.53-.48 4.42a4 4 0 0 1-1.62 1.62c-.89.48-2.07.48-4.42.48h-8.96c-2.35 0-3.53 0-4.42-.48a4 4 0 0 1-1.62-1.62C11 37 11 35.83 11 33.48V15.63Z"/><circle cx="15.15" cy="21.74" r=".82" fill="#484848" transform="rotate(-45 15.15 21.74)"/><circle cx="16.74" cy="20.16" r=".82" fill="#484848" transform="rotate(-45 16.74 20.16)"/><circle cx="16.89" cy="23.48" r=".82" fill="#484848" transform="rotate(-45 16.89 23.48)"/><circle cx="18.47" cy="21.89" r=".82" fill="#484848" transform="rotate(-45 18.47 21.89)"/><circle cx="18.62" cy="25.21" r=".82" fill="#484848" transform="rotate(-45 18.62 25.2)"/><circle cx="20.21" cy="23.62" r=".82" fill="#484848" transform="rotate(-45 20.2 23.62)"/><circle cx="20.35" cy="26.94" r=".82" fill="#484848" transform="rotate(-45 20.35 26.94)"/><circle cx="21.94" cy="25.36" r=".82" fill="#484848" transform="rotate(-45 21.94 25.36)"/><circle cx="22.09" cy="28.68" r=".82" fill="#484848" transform="rotate(-45 22.09 28.68)"/><circle cx="23.67" cy="27.09" r=".82" fill="#484848" transform="rotate(-45 23.67 27.1)"/><circle cx="23.82" cy="30.41" r=".82" fill="#484848" transform="rotate(-45 23.82 30.41)"/><circle cx="25.41" cy="28.83" r=".82" fill="#484848" transform="rotate(-45 25.4 28.83)"/><circle cx="25.56" cy="32.15" r=".82" fill="#484848" transform="rotate(-45 25.56 32.15)"/><circle cx="27.14" cy="30.56" r=".82" fill="#484848" transform="rotate(-45 27.14 30.56)"/><circle cx="27.29" cy="33.88" r=".82" fill="#484848" transform="rotate(-45 27.3 33.88)"/><circle cx="28.88" cy="32.29" r=".82" fill="#484848" transform="rotate(-45 28.88 32.3)"/><circle cx="27.31" cy="20.16" r=".82" fill="#484848" transform="rotate(45 27.31 20.16)"/><circle cx="28.9" cy="21.74" r=".82" fill="#484848" transform="rotate(45 28.9 21.74)"/><circle cx="25.58" cy="21.89" r=".82" fill="#484848" transform="rotate(45 25.58 21.89)"/><circle cx="27.16" cy="23.48" r=".82" fill="#484848" transform="rotate(45 27.16 23.48)"/><circle cx="23.84" cy="23.62" r=".82" fill="#484848" transform="rotate(45 23.84 23.62)"/><circle cx="25.43" cy="25.21" r=".82" fill="#484848" transform="rotate(45 25.43 25.2)"/><circle cx="22.11" cy="25.36" r=".82" fill="#484848" transform="rotate(45 22.1 25.36)"/><circle cx="23.69" cy="26.94" r=".82" fill="#484848" transform="rotate(45 23.7 26.94)"/><circle cx="20.38" cy="27.09" r=".82" fill="#484848" transform="rotate(45 20.38 27.1)"/><circle cx="21.96" cy="28.68" r=".82" fill="#484848" transform="rotate(45 21.96 28.68)"/><circle cx="18.64" cy="28.83" r=".82" fill="#484848" transform="rotate(45 18.64 28.83)"/><circle cx="20.23" cy="30.41" r=".82" fill="#484848" transform="rotate(45 20.23 30.41)"/><circle cx="16.91" cy="30.56" r=".82" fill="#484848" transform="rotate(45 16.9 30.56)"/><circle cx="18.49" cy="32.15" r=".82" fill="#484848" transform="rotate(45 18.5 32.15)"/><circle cx="15.17" cy="32.29" r=".82" fill="#484848" transform="rotate(45 15.17 32.3)"/><circle cx="16.76" cy="33.88" r=".82" fill="#484848" transform="rotate(45 16.76 33.88)"/><path stroke="#3C3C3C" stroke-linecap="round" stroke-width="2" d="M11 10h22M18 9v0a4 4 0 0 1 4-4v0a4 4 0 0 1 4 4v0"/></svg>