<svg xmlns="http://www.w3.org/2000/svg" width="44" height="44" fill="none"><circle cx="20.43" cy="11.02" r="1.06" fill="#fff" fill-opacity=".7"/><circle cx="23.33" cy="11.02" r="1.06" fill="#fff" fill-opacity=".7"/><circle cx="20.43" cy="14.19" r="1.06" fill="#fff" fill-opacity=".7"/><circle cx="23.33" cy="14.19" r="1.06" fill="#fff" fill-opacity=".7"/><circle cx="20.43" cy="17.35" r="1.06" fill="#fff" fill-opacity=".7"/><circle cx="23.33" cy="17.35" r="1.06" fill="#fff" fill-opacity=".7"/><circle cx="20.43" cy="20.52" r="1.06" fill="#fff" fill-opacity=".7"/><circle cx="23.33" cy="20.52" r="1.06" fill="#fff" fill-opacity=".7"/><circle cx="20.43" cy="23.69" r="1.06" fill="#fff" fill-opacity=".7"/><circle cx="23.33" cy="23.69" r="1.06" fill="#fff" fill-opacity=".7"/><circle cx="20.43" cy="26.86" r="1.06" fill="#fff" fill-opacity=".7"/><circle cx="23.33" cy="26.86" r="1.06" fill="#fff" fill-opacity=".7"/><circle cx="20.43" cy="30.03" r="1.06" fill="#fff" fill-opacity=".7"/><circle cx="23.33" cy="30.03" r="1.06" fill="#fff" fill-opacity=".7"/><circle cx="20.43" cy="33.19" r="1.06" fill="#fff" fill-opacity=".7"/><circle cx="23.33" cy="33.19" r="1.06" fill="#fff" fill-opacity=".7"/><circle cx="32.98" cy="20.43" r="1.06" fill="#fff" fill-opacity=".7" transform="rotate(90 32.98 20.43)"/><circle cx="32.98" cy="23.33" r="1.06" fill="#fff" fill-opacity=".7" transform="rotate(90 32.98 23.33)"/><circle cx="29.82" cy="20.43" r="1.06" fill="#fff" fill-opacity=".7" transform="rotate(90 29.82 20.43)"/><circle cx="29.82" cy="23.33" r="1.06" fill="#fff" fill-opacity=".7" transform="rotate(90 29.82 23.33)"/><circle cx="26.65" cy="20.43" r="1.06" fill="#fff" fill-opacity=".7" transform="rotate(90 26.65 20.43)"/><circle cx="26.65" cy="23.33" r="1.06" fill="#fff" fill-opacity=".7" transform="rotate(90 26.65 23.33)"/><circle cx="17.14" cy="20.43" r="1.06" fill="#fff" fill-opacity=".7" transform="rotate(90 17.14 20.43)"/><circle cx="17.14" cy="23.33" r="1.06" fill="#fff" fill-opacity=".7" transform="rotate(90 17.14 23.33)"/><circle cx="13.97" cy="20.43" r="1.06" fill="#fff" fill-opacity=".7" transform="rotate(90 13.97 20.43)"/><circle cx="13.97" cy="23.33" r="1.06" fill="#fff" fill-opacity=".7" transform="rotate(90 13.97 23.33)"/><circle cx="10.81" cy="20.43" r="1.06" fill="#fff" fill-opacity=".7" transform="rotate(90 10.8 20.43)"/><circle cx="10.81" cy="23.33" r="1.06" fill="#fff" fill-opacity=".7" transform="rotate(90 10.8 23.33)"/><path stroke="#fff" stroke-width="2" d="m16.75 13.25 4.63-4.63a.87.87 0 0 1 1.24 0l4.63 4.63M30.75 16.75l4.63 4.63c.34.34.34.9 0 1.24l-4.63 4.63M13.25 16.75l-4.63 4.63a.87.87 0 0 0 0 1.24l4.63 4.63M16.75 30.75l4.63 4.63c.34.34.9.34 1.24 0l4.63-4.63"/></svg>