<svg xmlns="http://www.w3.org/2000/svg" width="44" height="44" fill="none"><mask id="mask0_19_3083" width="27" height="27" x="10" y="10" maskUnits="userSpaceOnUse" style="mask-type:alpha"><rect width="26.67" height="26.67" x="10.33" y="10.33" fill="#484848" rx="6.67"/></mask><g fill="#484848" mask="url(#mask0_19_3083)"><circle cx="33.07" cy="10.53" r="1.05"/><circle cx="35.95" cy="10.53" r="1.05"/><circle cx="33.07" cy="13.68" r="1.05"/><circle cx="35.95" cy="13.68" r="1.05"/><circle cx="33.07" cy="16.82" r="1.05"/><circle cx="35.95" cy="16.82" r="1.05"/><circle cx="33.07" cy="19.97" r="1.05"/><circle cx="35.95" cy="19.97" r="1.05"/><circle cx="33.07" cy="23.12" r="1.05"/><circle cx="35.95" cy="23.12" r="1.05"/><circle cx="33.07" cy="26.26" r="1.05"/><circle cx="35.95" cy="26.26" r="1.05"/><circle cx="33.07" cy="29.41" r="1.05"/><circle cx="35.95" cy="29.41" r="1.05"/><circle cx="30.2" cy="32.56" r="1.05"/><circle cx="33.07" cy="32.56" r="1.05"/><circle cx="35.95" cy="32.56" r="1.05"/><circle cx="12.93" cy="35.7" r="1.05"/><circle cx="15.8" cy="35.7" r="1.05"/><circle cx="18.68" cy="35.7" r="1.05"/><circle cx="21.56" cy="35.7" r="1.05"/><circle cx="24.44" cy="35.7" r="1.05"/><circle cx="27.32" cy="35.7" r="1.05"/><circle cx="30.2" cy="35.7" r="1.05"/><circle cx="33.07" cy="35.7" r="1.05"/></g><rect width="24.67" height="24.67" x="8" y="8" stroke="#3C3C3C" stroke-width="2" rx="5.67"/></svg>