<svg xmlns="http://www.w3.org/2000/svg" width="192" height="6" fill="none"><circle cx="1" cy="1" r="1" fill="#484848" transform="matrix(1 0 0 -1 164.91 5.1)"/><circle cx="1" cy="1" r="1" fill="#484848" transform="matrix(1 0 0 -1 167.66 5.1)"/><circle cx="1" cy="1" r="1" fill="#484848" transform="matrix(1 0 0 -1 170.4 5.1)"/><circle cx="1" cy="1" r="1" fill="#484848" transform="matrix(1 0 0 -1 173.14 5.1)"/><circle cx="1" cy="1" r="1" fill="#484848" transform="matrix(1 0 0 -1 175.89 5.1)"/><circle cx="1" cy="1" r="1" fill="#484848" transform="matrix(1 0 0 -1 178.63 5.1)"/><circle cx="1" cy="1" r="1" fill="#484848" transform="matrix(1 0 0 -1 181.37 5.1)"/><circle cx="1" cy="1" r="1" fill="#484848" transform="matrix(1 0 0 -1 184.12 5.1)"/><circle cx="1" cy="1" r="1" fill="#484848" transform="matrix(1 0 0 -1 186.86 5.1)"/><circle cx="1" cy="1" r="1" fill="#484848" transform="matrix(1 0 0 -1 189.6 5.1)"/><circle cx="1" cy="1" r="1" fill="#484848" transform="matrix(1 0 0 -1 164.91 2.1)"/><circle cx="1" cy="1" r="1" fill="#484848" transform="matrix(1 0 0 -1 167.66 2.1)"/><circle cx="1" cy="1" r="1" fill="#484848" transform="matrix(1 0 0 -1 170.4 2.1)"/><circle cx="1" cy="1" r="1" fill="#484848" transform="matrix(1 0 0 -1 173.14 2.1)"/><circle cx="1" cy="1" r="1" fill="#484848" transform="matrix(1 0 0 -1 175.89 2.1)"/><circle cx="1" cy="1" r="1" fill="#484848" transform="matrix(1 0 0 -1 178.63 2.1)"/><circle cx="1" cy="1" r="1" fill="#484848" transform="matrix(1 0 0 -1 181.37 2.1)"/><circle cx="1" cy="1" r="1" fill="#484848" transform="matrix(1 0 0 -1 184.12 2.1)"/><circle cx="1" cy="1" r="1" fill="#484848" transform="matrix(1 0 0 -1 186.86 2.1)"/><circle cx="1" cy="1" r="1" fill="#484848" transform="matrix(1 0 0 -1 189.6 2.1)"/><circle cx="1" cy="1" r="1" fill="#484848" transform="matrix(1 0 0 -1 137.43 5.1)"/><circle cx="1" cy="1" r="1" fill="#484848" transform="matrix(1 0 0 -1 140.17 5.1)"/><circle cx="1" cy="1" r="1" fill="#484848" transform="matrix(1 0 0 -1 142.91 5.1)"/><circle cx="1" cy="1" r="1" fill="#484848" transform="matrix(1 0 0 -1 145.66 5.1)"/><circle cx="1" cy="1" r="1" fill="#484848" transform="matrix(1 0 0 -1 148.4 5.1)"/><circle cx="1" cy="1" r="1" fill="#484848" transform="matrix(1 0 0 -1 151.15 5.1)"/><circle cx="1" cy="1" r="1" fill="#484848" transform="matrix(1 0 0 -1 153.89 5.1)"/><circle cx="1" cy="1" r="1" fill="#484848" transform="matrix(1 0 0 -1 156.63 5.1)"/><circle cx="1" cy="1" r="1" fill="#484848" transform="matrix(1 0 0 -1 159.38 5.1)"/><circle cx="1" cy="1" r="1" fill="#484848" transform="matrix(1 0 0 -1 162.12 5.1)"/><circle cx="1" cy="1" r="1" fill="#484848" transform="matrix(1 0 0 -1 137.43 2.1)"/><circle cx="1" cy="1" r="1" fill="#484848" transform="matrix(1 0 0 -1 140.17 2.1)"/><circle cx="1" cy="1" r="1" fill="#484848" transform="matrix(1 0 0 -1 142.91 2.1)"/><circle cx="1" cy="1" r="1" fill="#484848" transform="matrix(1 0 0 -1 145.66 2.1)"/><circle cx="1" cy="1" r="1" fill="#484848" transform="matrix(1 0 0 -1 148.4 2.1)"/><circle cx="1" cy="1" r="1" fill="#484848" transform="matrix(1 0 0 -1 151.15 2.1)"/><circle cx="1" cy="1" r="1" fill="#484848" transform="matrix(1 0 0 -1 153.89 2.1)"/><circle cx="1" cy="1" r="1" fill="#484848" transform="matrix(1 0 0 -1 156.63 2.1)"/><circle cx="1" cy="1" r="1" fill="#484848" transform="matrix(1 0 0 -1 159.38 2.1)"/><circle cx="1" cy="1" r="1" fill="#484848" transform="matrix(1 0 0 -1 162.12 2.1)"/><circle cx="1" cy="1" r="1" fill="#484848" transform="matrix(1 0 0 -1 109.94 5.1)"/><circle cx="1" cy="1" r="1" fill="#484848" transform="matrix(1 0 0 -1 112.69 5.1)"/><circle cx="1" cy="1" r="1" fill="#484848" transform="matrix(1 0 0 -1 115.43 5.1)"/><circle cx="1" cy="1" r="1" fill="#484848" transform="matrix(1 0 0 -1 118.17 5.1)"/><circle cx="1" cy="1" r="1" fill="#484848" transform="matrix(1 0 0 -1 120.92 5.1)"/><circle cx="1" cy="1" r="1" fill="#484848" transform="matrix(1 0 0 -1 123.66 5.1)"/><circle cx="1" cy="1" r="1" fill="#484848" transform="matrix(1 0 0 -1 126.4 5.1)"/><circle cx="1" cy="1" r="1" fill="#484848" transform="matrix(1 0 0 -1 129.15 5.1)"/><circle cx="1" cy="1" r="1" fill="#484848" transform="matrix(1 0 0 -1 131.9 5.1)"/><circle cx="1" cy="1" r="1" fill="#484848" transform="matrix(1 0 0 -1 134.63 5.1)"/><circle cx="1" cy="1" r="1" fill="#484848" transform="matrix(1 0 0 -1 109.94 2.1)"/><circle cx="1" cy="1" r="1" fill="#484848" transform="matrix(1 0 0 -1 112.69 2.1)"/><circle cx="1" cy="1" r="1" fill="#484848" transform="matrix(1 0 0 -1 115.43 2.1)"/><circle cx="1" cy="1" r="1" fill="#484848" transform="matrix(1 0 0 -1 118.17 2.1)"/><circle cx="1" cy="1" r="1" fill="#484848" transform="matrix(1 0 0 -1 120.92 2.1)"/><circle cx="1" cy="1" r="1" fill="#484848" transform="matrix(1 0 0 -1 123.66 2.1)"/><circle cx="1" cy="1" r="1" fill="#484848" transform="matrix(1 0 0 -1 126.4 2.1)"/><circle cx="1" cy="1" r="1" fill="#484848" transform="matrix(1 0 0 -1 129.15 2.1)"/><circle cx="1" cy="1" r="1" fill="#484848" transform="matrix(1 0 0 -1 131.9 2.1)"/><circle cx="1" cy="1" r="1" fill="#484848" transform="matrix(1 0 0 -1 134.63 2.1)"/><circle cx="1" cy="1" r="1" fill="#484848" transform="matrix(1 0 0 -1 82.46 5.1)"/><circle cx="1" cy="1" r="1" fill="#484848" transform="matrix(1 0 0 -1 85.2 5.1)"/><circle cx="1" cy="1" r="1" fill="#484848" transform="matrix(1 0 0 -1 87.94 5.1)"/><circle cx="1" cy="1" r="1" fill="#484848" transform="matrix(1 0 0 -1 90.69 5.1)"/><circle cx="1" cy="1" r="1" fill="#484848" transform="matrix(1 0 0 -1 93.43 5.1)"/><circle cx="1" cy="1" r="1" fill="#484848" transform="matrix(1 0 0 -1 96.17 5.1)"/><circle cx="1" cy="1" r="1" fill="#484848" transform="matrix(1 0 0 -1 98.92 5.1)"/><circle cx="1" cy="1" r="1" fill="#484848" transform="matrix(1 0 0 -1 101.66 5.1)"/><circle cx="1" cy="1" r="1" fill="#484848" transform="matrix(1 0 0 -1 104.4 5.1)"/><circle cx="1" cy="1" r="1" fill="#484848" transform="matrix(1 0 0 -1 107.15 5.1)"/><circle cx="1" cy="1" r="1" fill="#484848" transform="matrix(1 0 0 -1 82.46 2.1)"/><circle cx="1" cy="1" r="1" fill="#484848" transform="matrix(1 0 0 -1 85.2 2.1)"/><circle cx="1" cy="1" r="1" fill="#484848" transform="matrix(1 0 0 -1 87.94 2.1)"/><circle cx="1" cy="1" r="1" fill="#484848" transform="matrix(1 0 0 -1 90.69 2.1)"/><circle cx="1" cy="1" r="1" fill="#484848" transform="matrix(1 0 0 -1 93.43 2.1)"/><circle cx="1" cy="1" r="1" fill="#484848" transform="matrix(1 0 0 -1 96.17 2.1)"/><circle cx="1" cy="1" r="1" fill="#484848" transform="matrix(1 0 0 -1 98.92 2.1)"/><circle cx="1" cy="1" r="1" fill="#484848" transform="matrix(1 0 0 -1 101.66 2.1)"/><circle cx="1" cy="1" r="1" fill="#484848" transform="matrix(1 0 0 -1 104.4 2.1)"/><circle cx="1" cy="1" r="1" fill="#484848" transform="matrix(1 0 0 -1 107.15 2.1)"/><circle cx="1" cy="1" r="1" fill="#484848" transform="matrix(1 0 0 -1 54.97 5.1)"/><circle cx="1" cy="1" r="1" fill="#484848" transform="matrix(1 0 0 -1 57.71 5.1)"/><circle cx="1" cy="1" r="1" fill="#484848" transform="matrix(1 0 0 -1 60.46 5.1)"/><circle cx="1" cy="1" r="1" fill="#484848" transform="matrix(1 0 0 -1 63.2 5.1)"/><circle cx="1" cy="1" r="1" fill="#484848" transform="matrix(1 0 0 -1 65.95 5.1)"/><circle cx="1" cy="1" r="1" fill="#484848" transform="matrix(1 0 0 -1 68.69 5.1)"/><circle cx="1" cy="1" r="1" fill="#484848" transform="matrix(1 0 0 -1 71.43 5.1)"/><circle cx="1" cy="1" r="1" fill="#484848" transform="matrix(1 0 0 -1 74.17 5.1)"/><circle cx="1" cy="1" r="1" fill="#484848" transform="matrix(1 0 0 -1 76.92 5.1)"/><circle cx="1" cy="1" r="1" fill="#484848" transform="matrix(1 0 0 -1 79.66 5.1)"/><circle cx="1" cy="1" r="1" fill="#484848" transform="matrix(1 0 0 -1 54.97 2.1)"/><circle cx="1" cy="1" r="1" fill="#484848" transform="matrix(1 0 0 -1 57.71 2.1)"/><circle cx="1" cy="1" r="1" fill="#484848" transform="matrix(1 0 0 -1 60.46 2.1)"/><circle cx="1" cy="1" r="1" fill="#484848" transform="matrix(1 0 0 -1 63.2 2.1)"/><circle cx="1" cy="1" r="1" fill="#484848" transform="matrix(1 0 0 -1 65.95 2.1)"/><circle cx="1" cy="1" r="1" fill="#484848" transform="matrix(1 0 0 -1 68.69 2.1)"/><circle cx="1" cy="1" r="1" fill="#484848" transform="matrix(1 0 0 -1 71.43 2.1)"/><circle cx="1" cy="1" r="1" fill="#484848" transform="matrix(1 0 0 -1 74.17 2.1)"/><circle cx="1" cy="1" r="1" fill="#484848" transform="matrix(1 0 0 -1 76.92 2.1)"/><circle cx="1" cy="1" r="1" fill="#484848" transform="matrix(1 0 0 -1 79.66 2.1)"/><circle cx="1" cy="1" r="1" fill="#484848" transform="matrix(1 0 0 -1 27.49 5.1)"/><circle cx="1" cy="1" r="1" fill="#484848" transform="matrix(1 0 0 -1 30.23 5.1)"/><circle cx="1" cy="1" r="1" fill="#484848" transform="matrix(1 0 0 -1 32.97 5.1)"/><circle cx="1" cy="1" r="1" fill="#484848" transform="matrix(1 0 0 -1 35.71 5.1)"/><circle cx="1" cy="1" r="1" fill="#484848" transform="matrix(1 0 0 -1 38.46 5.1)"/><circle cx="1" cy="1" r="1" fill="#484848" transform="matrix(1 0 0 -1 41.2 5.1)"/><circle cx="1" cy="1" r="1" fill="#484848" transform="matrix(1 0 0 -1 43.95 5.1)"/><circle cx="1" cy="1" r="1" fill="#484848" transform="matrix(1 0 0 -1 46.69 5.1)"/><circle cx="1" cy="1" r="1" fill="#484848" transform="matrix(1 0 0 -1 49.43 5.1)"/><circle cx="1" cy="1" r="1" fill="#484848" transform="matrix(1 0 0 -1 52.18 5.1)"/><circle cx="1" cy="1" r="1" fill="#484848" transform="matrix(1 0 0 -1 27.49 2.1)"/><circle cx="1" cy="1" r="1" fill="#484848" transform="matrix(1 0 0 -1 30.23 2.1)"/><circle cx="1" cy="1" r="1" fill="#484848" transform="matrix(1 0 0 -1 32.97 2.1)"/><circle cx="1" cy="1" r="1" fill="#484848" transform="matrix(1 0 0 -1 35.71 2.1)"/><circle cx="1" cy="1" r="1" fill="#484848" transform="matrix(1 0 0 -1 38.46 2.1)"/><circle cx="1" cy="1" r="1" fill="#484848" transform="matrix(1 0 0 -1 41.2 2.1)"/><circle cx="1" cy="1" r="1" fill="#484848" transform="matrix(1 0 0 -1 43.95 2.1)"/><circle cx="1" cy="1" r="1" fill="#484848" transform="matrix(1 0 0 -1 46.69 2.1)"/><circle cx="1" cy="1" r="1" fill="#484848" transform="matrix(1 0 0 -1 49.43 2.1)"/><circle cx="1" cy="1" r="1" fill="#484848" transform="matrix(1 0 0 -1 52.18 2.1)"/><circle cx="1" cy="1" r="1" fill="#484848" transform="matrix(1 0 0 -1 5.49 5.1)"/><circle cx="1" cy="1" r="1" fill="#484848" transform="matrix(1 0 0 -1 8.23 5.1)"/><circle cx="1" cy="1" r="1" fill="#484848" transform="matrix(1 0 0 -1 10.97 5.1)"/><circle cx="1" cy="1" r="1" fill="#484848" transform="matrix(1 0 0 -1 13.72 5.1)"/><circle cx="1" cy="1" r="1" fill="#484848" transform="matrix(1 0 0 -1 16.46 5.1)"/><circle cx="1" cy="1" r="1" fill="#484848" transform="matrix(1 0 0 -1 19.2 5.1)"/><circle cx="1" cy="1" r="1" fill="#484848" transform="matrix(1 0 0 -1 21.95 5.1)"/><circle cx="1" cy="1" r="1" fill="#484848" transform="matrix(1 0 0 -1 24.7 5.1)"/><circle cx="1" cy="1" r="1" fill="#484848" transform="matrix(1 0 0 -1 5.49 2.1)"/><circle cx="1" cy="1" r="1" fill="#484848" transform="matrix(1 0 0 -1 8.23 2.1)"/><circle cx="1" cy="1" r="1" fill="#484848" transform="matrix(1 0 0 -1 10.97 2.1)"/><circle cx="1" cy="1" r="1" fill="#484848" transform="matrix(1 0 0 -1 13.72 2.1)"/><circle cx="1" cy="1" r="1" fill="#484848" transform="matrix(1 0 0 -1 16.46 2.1)"/><circle cx="1" cy="1" r="1" fill="#484848" transform="matrix(1 0 0 -1 19.2 2.1)"/><circle cx="1" cy="1" r="1" fill="#484848" transform="matrix(1 0 0 -1 21.95 2.1)"/><circle cx="1" cy="1" r="1" fill="#484848" transform="matrix(1 0 0 -1 24.7 2.1)"/></svg>