<svg width="57" height="15" viewBox="0 0 57 15" fill="none" xmlns="http://www.w3.org/2000/svg">
<path d="M47.5097 11.4537V12.0263H46.937V11.4537H47.5097ZM47.5097 10.881V11.4537H46.937V10.881H47.5097ZM47.5097 10.3083V10.881H46.937V10.3083H47.5097ZM47.5097 9.73561V10.3083H46.937V9.73561H47.5097ZM47.5097 5.72683V6.29951H46.937V5.72683H47.5097ZM48.0824 5.72683V6.29951H47.5097V5.72683H48.0824ZM48.0824 6.29951V6.8722H47.5097V6.29951H48.0824ZM48.0824 6.8722V7.44488H47.5097V6.8722H48.0824ZM48.6551 9.73561V10.3083H48.0824V9.73561H48.6551ZM48.6551 10.3083V10.881H48.0824V10.3083H48.6551ZM48.6551 10.881V11.4537H48.0824V10.881H48.6551ZM48.6551 11.4537V12.0263H48.0824V11.4537H48.6551ZM48.6551 12.0263V12.599H48.0824V12.0263H48.6551ZM48.6551 12.599V13.1717H48.0824V12.599H48.6551ZM48.6551 13.1717V13.7444H48.0824V13.1717H48.6551ZM49.8005 13.7444V14.3171H49.2278V13.7444H49.8005ZM49.8005 13.1717V13.7444H49.2278V13.1717H49.8005ZM49.8005 12.599V13.1717H49.2278V12.599H49.8005ZM49.8005 12.0263V12.599H49.2278V12.0263H49.8005ZM49.8005 11.4537V12.0263H49.2278V11.4537H49.8005ZM49.8005 10.881V11.4537H49.2278V10.881H49.8005ZM49.8005 10.3083V10.881H49.2278V10.3083H49.8005ZM49.8005 9.73561V10.3083H49.2278V9.73561H49.8005ZM49.2278 9.73561V10.3083H48.6551V9.73561H49.2278ZM49.2278 10.3083V10.881H48.6551V10.3083H49.2278ZM49.2278 10.881V11.4537H48.6551V10.881H49.2278ZM49.2278 11.4537V12.0263H48.6551V11.4537H49.2278ZM49.2278 12.0263V12.599H48.6551V12.0263H49.2278ZM49.2278 12.599V13.1717H48.6551V12.599H49.2278ZM49.2278 13.1717V13.7444H48.6551V13.1717H49.2278ZM48.0824 12.599V13.1717H47.5097V12.599H48.0824ZM48.0824 12.0263V12.599H47.5097V12.0263H48.0824ZM48.0824 11.4537V12.0263H47.5097V11.4537H48.0824ZM48.0824 10.881V11.4537H47.5097V10.881H48.0824ZM48.0824 10.3083V10.881H47.5097V10.3083H48.0824ZM48.0824 9.73561V10.3083H47.5097V9.73561H48.0824ZM47.5097 5.15415V5.72683H46.937V5.15415H47.5097ZM49.2278 5.15415V5.72683H48.6551V5.15415H49.2278ZM49.2278 5.72683V6.29951H48.6551V5.72683H49.2278ZM49.2278 6.29951V6.8722H48.6551V6.29951H49.2278ZM49.2278 6.8722V7.44488H48.6551V6.8722H49.2278ZM49.2278 7.44488V8.01756H48.6551V7.44488H49.2278ZM49.8005 8.01756V8.59024H49.2278V8.01756H49.8005ZM49.8005 7.44488V8.01756H49.2278V7.44488H49.8005ZM49.8005 6.8722V7.44488H49.2278V6.8722H49.8005ZM49.8005 6.29951V6.8722H49.2278V6.29951H49.8005ZM49.8005 5.72683V6.29951H49.2278V5.72683H49.8005ZM49.8005 5.15415V5.72683H49.2278V5.15415H49.8005ZM48.0824 5.15415V5.72683H47.5097V5.15415H48.0824ZM48.6551 5.15415V5.72683H48.0824V5.15415H48.6551ZM48.6551 5.72683V6.29951H48.0824V5.72683H48.6551ZM48.6551 6.29951V6.8722H48.0824V6.29951H48.6551ZM48.6551 6.8722V7.44488H48.0824V6.8722H48.6551ZM48.6551 7.44488V8.01756H48.0824V7.44488H48.6551ZM54.3819 13.7444V14.3171H53.8092V13.7444H54.3819ZM54.3819 13.1717V13.7444H53.8092V13.1717H54.3819ZM54.3819 12.599V13.1717H53.8092V12.599H54.3819ZM54.3819 12.0263V12.599H53.8092V12.0263H54.3819ZM54.3819 11.4537V12.0263H53.8092V11.4537H54.3819ZM54.3819 10.881V11.4537H53.8092V10.881H54.3819ZM54.3819 10.3083V10.881H53.8092V10.3083H54.3819ZM54.3819 9.73561V10.3083H53.8092V9.73561H54.3819ZM54.3819 9.16293V9.73561H53.8092V9.16293H54.3819ZM54.3819 8.59024V9.16293H53.8092V8.59024H54.3819ZM54.3819 8.01756V8.59024H53.8092V8.01756H54.3819ZM54.3819 7.44488V8.01756H53.8092V7.44488H54.3819ZM54.3819 6.8722V7.44488H53.8092V6.8722H54.3819ZM54.3819 6.29951V6.8722H53.8092V6.29951H54.3819ZM54.3819 5.72683V6.29951H53.8092V5.72683H54.3819ZM54.9546 6.29951V6.8722H54.3819V6.29951H54.9546ZM54.9546 6.8722V7.44488H54.3819V6.8722H54.9546ZM54.9546 7.44488V8.01756H54.3819V7.44488H54.9546ZM54.9546 8.01756V8.59024H54.3819V8.01756H54.9546ZM54.9546 8.59024V9.16293H54.3819V8.59024H54.9546ZM54.9546 9.16293V9.73561H54.3819V9.16293H54.9546ZM55.5273 9.73561V10.3083H54.9546V9.73561H55.5273ZM55.5273 10.3083V10.881H54.9546V10.3083H55.5273ZM55.5273 10.881V11.4537H54.9546V10.881H55.5273ZM55.5273 11.4537V12.0263H54.9546V11.4537H55.5273ZM55.5273 12.0263V12.599H54.9546V12.0263H55.5273ZM55.5273 12.599V13.1717H54.9546V12.599H55.5273ZM55.5273 13.1717V13.7444H54.9546V13.1717H55.5273ZM56.6727 11.4537V12.0263H56.1V11.4537H56.6727ZM56.6727 10.881V11.4537H56.1V10.881H56.6727ZM56.6727 10.3083V10.881H56.1V10.3083H56.6727ZM56.6727 9.73561V10.3083H56.1V9.73561H56.6727ZM56.1 9.73561V10.3083H55.5273V9.73561H56.1ZM56.1 9.16293V9.73561H55.5273V9.16293H56.1ZM56.1 10.3083V10.881H55.5273V10.3083H56.1ZM56.1 10.881V11.4537H55.5273V10.881H56.1ZM56.1 11.4537V12.0263H55.5273V11.4537H56.1ZM56.1 12.0263V12.599H55.5273V12.0263H56.1ZM56.1 12.599V13.1717H55.5273V12.599H56.1ZM54.9546 13.1717V13.7444H54.3819V13.1717H54.9546ZM54.9546 12.599V13.1717H54.3819V12.599H54.9546ZM54.9546 12.0263V12.599H54.3819V12.0263H54.9546ZM54.9546 11.4537V12.0263H54.3819V11.4537H54.9546ZM54.9546 10.881V11.4537H54.3819V10.881H54.9546ZM54.9546 10.3083V10.881H54.3819V10.3083H54.9546ZM54.9546 9.73561V10.3083H54.3819V9.73561H54.9546ZM56.1 7.44488V8.01756H55.5273V7.44488H56.1ZM56.6727 8.01756V8.59024H56.1V8.01756H56.6727ZM56.6727 8.59024V9.16293H56.1V8.59024H56.6727ZM56.6727 9.16293V9.73561H56.1V9.16293H56.6727ZM55.5273 6.29951V6.8722H54.9546V6.29951H55.5273ZM55.5273 6.8722V7.44488H54.9546V6.8722H55.5273ZM55.5273 7.44488V8.01756H54.9546V7.44488H55.5273ZM55.5273 8.01756V8.59024H54.9546V8.01756H55.5273ZM55.5273 8.59024V9.16293H54.9546V8.59024H55.5273ZM55.5273 9.16293V9.73561H54.9546V9.16293H55.5273ZM56.1 8.59024V9.16293H55.5273V8.59024H56.1ZM56.1 8.01756V8.59024H55.5273V8.01756H56.1ZM50.3731 13.7444V14.3171H49.8005V13.7444H50.3731ZM50.9458 13.7444V14.3171H50.3731V13.7444H50.9458ZM51.5185 13.7444V14.3171H50.9458V13.7444H51.5185ZM52.6639 13.7444V14.3171H52.0912V13.7444H52.6639ZM53.2366 13.7444V14.3171H52.6639V13.7444H53.2366ZM53.8092 13.7444V14.3171H53.2366V13.7444H53.8092ZM53.8092 13.1717V13.7444H53.2366V13.1717H53.8092ZM53.2366 13.1717V13.7444H52.6639V13.1717H53.2366ZM52.6639 13.1717V13.7444H52.0912V13.1717H52.6639ZM51.5185 13.1717V13.7444H50.9458V13.1717H51.5185ZM50.9458 13.1717V13.7444H50.3731V13.1717H50.9458ZM50.3731 13.1717V13.7444H49.8005V13.1717H50.3731ZM50.3731 12.599V13.1717H49.8005V12.599H50.3731ZM50.9458 12.599V13.1717H50.3731V12.599H50.9458ZM51.5185 12.599V13.1717H50.9458V12.599H51.5185ZM52.6639 12.599V13.1717H52.0912V12.599H52.6639ZM53.2366 12.599V13.1717H52.6639V12.599H53.2366ZM53.8092 12.599V13.1717H53.2366V12.599H53.8092ZM53.8092 12.0263V12.599H53.2366V12.0263H53.8092ZM53.2366 12.0263V12.599H52.6639V12.0263H53.2366ZM52.6639 12.0263V12.599H52.0912V12.0263H52.6639ZM51.5185 12.0263V12.599H50.9458V12.0263H51.5185ZM50.9458 12.0263V12.599H50.3731V12.0263H50.9458ZM50.3731 12.0263V12.599H49.8005V12.0263H50.3731ZM50.3731 11.4537V12.0263H49.8005V11.4537H50.3731ZM53.8092 11.4537V12.0263H53.2366V11.4537H53.8092ZM56.1 2.86342V2.29073H56.6727V2.86342H56.1ZM56.1 3.4361V2.86342H56.6727V3.4361H56.1ZM56.1 4.00878V3.4361H56.6727V4.00878H56.1ZM54.9546 4.00878V3.4361H55.5273V4.00878H54.9546ZM54.9546 3.4361V2.86342H55.5273V3.4361H54.9546ZM54.9546 2.86342V2.29073H55.5273V2.86342H54.9546ZM54.9546 2.29073V1.71805H55.5273V2.29073H54.9546ZM54.9546 1.71805V1.14537H55.5273V1.71805H54.9546ZM54.9546 1.14537V0.572684H55.5273V1.14537H54.9546ZM53.8092 0.572684V0H54.3819V0.572684H53.8092ZM53.8092 1.14537V0.572684H54.3819V1.14537H53.8092ZM53.8092 1.71805V1.14537H54.3819V1.71805H53.8092ZM53.8092 2.29073V1.71805H54.3819V2.29073H53.8092ZM53.8092 2.86342V2.29073H54.3819V2.86342H53.8092ZM53.8092 3.4361V2.86342H54.3819V3.4361H53.8092ZM53.8092 4.00878V3.4361H54.3819V4.00878H53.8092ZM54.3819 4.00878V3.4361H54.9546V4.00878H54.3819ZM54.3819 3.4361V2.86342H54.9546V3.4361H54.3819ZM54.3819 2.86342V2.29073H54.9546V2.86342H54.3819ZM54.3819 2.29073V1.71805H54.9546V2.29073H54.3819ZM54.3819 1.71805V1.14537H54.9546V1.71805H54.3819ZM54.3819 1.14537V0.572684H54.9546V1.14537H54.3819ZM55.5273 1.71805V1.14537H56.1V1.71805H55.5273ZM55.5273 2.29073V1.71805H56.1V2.29073H55.5273ZM55.5273 2.86342V2.29073H56.1V2.86342H55.5273ZM55.5273 3.4361V2.86342H56.1V3.4361H55.5273ZM55.5273 4.00878V3.4361H56.1V4.00878H55.5273ZM49.2278 0.572684V0H49.8005V0.572684H49.2278ZM49.2278 1.14537V0.572684H49.8005V1.14537H49.2278ZM49.2278 1.71805V1.14537H49.8005V1.71805H49.2278ZM49.2278 2.29073V1.71805H49.8005V2.29073H49.2278ZM49.2278 2.86342V2.29073H49.8005V2.86342H49.2278ZM49.2278 3.4361V2.86342H49.8005V3.4361H49.2278ZM49.2278 4.00878V3.4361H49.8005V4.00878H49.2278ZM48.0824 4.00878V3.4361H48.6551V4.00878H48.0824ZM48.0824 3.4361V2.86342H48.6551V3.4361H48.0824ZM48.0824 2.86342V2.29073H48.6551V2.86342H48.0824ZM48.0824 2.29073V1.71805H48.6551V2.29073H48.0824ZM48.0824 1.71805V1.14537H48.6551V1.71805H48.0824ZM48.0824 1.14537V0.572684H48.6551V1.14537H48.0824ZM46.937 2.86342V2.29073H47.5097V2.86342H46.937ZM46.937 3.4361V2.86342H47.5097V3.4361H46.937ZM46.937 4.00878V3.4361H47.5097V4.00878H46.937ZM47.5097 4.00878V3.4361H48.0824V4.00878H47.5097ZM47.5097 3.4361V2.86342H48.0824V3.4361H47.5097ZM47.5097 2.86342V2.29073H48.0824V2.86342H47.5097ZM47.5097 2.29073V1.71805H48.0824V2.29073H47.5097ZM47.5097 1.71805V1.14537H48.0824V1.71805H47.5097ZM48.6551 1.14537V0.572684H49.2278V1.14537H48.6551ZM48.6551 1.71805V1.14537H49.2278V1.71805H48.6551ZM48.6551 2.29073V1.71805H49.2278V2.29073H48.6551ZM48.6551 2.86342V2.29073H49.2278V2.86342H48.6551ZM48.6551 3.4361V2.86342H49.2278V3.4361H48.6551ZM48.6551 4.00878V3.4361H49.2278V4.00878H48.6551ZM53.2366 0.572684V0H53.8092V0.572684H53.2366ZM52.6639 0.572684V0H53.2366V0.572684H52.6639ZM52.0912 0.572684V0H52.6639V0.572684H52.0912ZM50.9458 0.572684V0H51.5185V0.572684H50.9458ZM50.3731 0.572684V0H50.9458V0.572684H50.3731ZM49.8005 0.572684V0H50.3731V0.572684H49.8005ZM49.8005 1.14537V0.572684H50.3731V1.14537H49.8005ZM50.3731 1.14537V0.572684H50.9458V1.14537H50.3731ZM50.9458 1.14537V0.572684H51.5185V1.14537H50.9458ZM52.0912 1.14537V0.572684H52.6639V1.14537H52.0912ZM52.6639 1.14537V0.572684H53.2366V1.14537H52.6639ZM53.2366 1.14537V0.572684H53.8092V1.14537H53.2366ZM53.2366 1.71805V1.14537H53.8092V1.71805H53.2366ZM52.6639 1.71805V1.14537H53.2366V1.71805H52.6639ZM52.0912 1.71805V1.14537H52.6639V1.71805H52.0912ZM50.9458 1.71805V1.14537H51.5185V1.71805H50.9458ZM50.3731 1.71805V1.14537H50.9458V1.71805H50.3731ZM49.8005 1.71805V1.14537H50.3731V1.71805H49.8005ZM49.8005 2.29073V1.71805H50.3731V2.29073H49.8005ZM50.3731 2.29073V1.71805H50.9458V2.29073H50.3731ZM50.9458 2.29073V1.71805H51.5185V2.29073H50.9458ZM52.0912 2.29073V1.71805H52.6639V2.29073H52.0912ZM52.6639 2.29073V1.71805H53.2366V2.29073H52.6639ZM53.2366 2.29073V1.71805H53.8092V2.29073H53.2366ZM53.2366 2.86342V2.29073H53.8092V2.86342H53.2366ZM49.8005 2.86342V2.29073H50.3731V2.86342H49.8005ZM47.5097 4.58146V5.15415H46.937V4.58146H47.5097ZM48.0824 4.58146V5.15415H47.5097V4.58146H48.0824ZM47.5097 4.00878V4.58146H46.937V4.00878H47.5097ZM49.2278 4.00878V4.58146H48.6551V4.00878H49.2278ZM49.2278 4.58146V5.15415H48.6551V4.58146H49.2278ZM49.8005 4.58146V5.15415H49.2278V4.58146H49.8005ZM49.8005 4.00878V4.58146H49.2278V4.00878H49.8005ZM48.0824 4.00878V4.58146H47.5097V4.00878H48.0824ZM48.6551 4.00878V4.58146H48.0824V4.00878H48.6551ZM48.6551 4.58146V5.15415H48.0824V4.58146H48.6551ZM50.9458 11.4537V12.0263H50.3731V11.4537H50.9458ZM51.5185 11.4537V12.0263H50.9458V11.4537H51.5185ZM52.6639 11.4537V12.0263H52.0912V11.4537H52.6639ZM53.2366 11.4537V12.0263H52.6639V11.4537H53.2366ZM53.8092 10.881V11.4537H53.2366V10.881H53.8092ZM50.3731 10.881V11.4537H49.8005V10.881H50.3731ZM50.9458 2.29073V2.86342H50.3731V2.29073H50.9458ZM51.5185 2.29073V2.86342H50.9458V2.29073H51.5185ZM52.6639 2.29073V2.86342H52.0912V2.29073H52.6639ZM53.2366 2.29073V2.86342H52.6639V2.29073H53.2366ZM53.8092 2.86342V3.4361H53.2366V2.86342H53.8092ZM50.3731 2.86342V3.4361H49.8005V2.86342H50.3731ZM51.5185 6.8722V7.44488H50.9458V6.8722H51.5185ZM52.6639 6.8722V7.44488H52.0912V6.8722H52.6639ZM53.2366 6.8722V7.44488H52.6639V6.8722H53.2366ZM53.8092 6.8722V7.44488H53.2366V6.8722H53.8092ZM53.8092 7.44488V8.01756H53.2366V7.44488H53.8092ZM53.2366 7.44488V8.01756H52.6639V7.44488H53.2366ZM52.6639 7.44488V8.01756H52.0912V7.44488H52.6639ZM51.5185 7.44488V8.01756H50.9458V7.44488H51.5185ZM51.5185 5.72683V6.29951H50.9458V5.72683H51.5185ZM52.6639 5.72683V6.29951H52.0912V5.72683H52.6639ZM53.2366 5.72683V6.29951H52.6639V5.72683H53.2366ZM53.8092 5.72683V6.29951H53.2366V5.72683H53.8092ZM53.8092 6.29951V6.8722H53.2366V6.29951H53.8092ZM53.2366 6.29951V6.8722H52.6639V6.29951H53.2366ZM52.6639 6.29951V6.8722H52.0912V6.29951H52.6639ZM51.5185 6.29951V6.8722H50.9458V6.29951H51.5185ZM51.5185 8.01756V8.59024H50.9458V8.01756H51.5185ZM52.6639 8.01756V8.59024H52.0912V8.01756H52.6639ZM53.2366 8.01756V8.59024H52.6639V8.01756H53.2366ZM53.8092 8.01756V8.59024H53.2366V8.01756H53.8092ZM56.1 6.8722V7.44488H55.5273V6.8722H56.1ZM53.8092 8.59024V9.16293H53.2366V8.59024H53.8092ZM50.3731 5.72683V6.29951H49.8005V5.72683H50.3731ZM50.9458 5.72683V6.29951H50.3731V5.72683H50.9458ZM50.3731 5.15415V5.72683H49.8005V5.15415H50.3731ZM50.9458 6.29951V6.8722H50.3731V6.29951H50.9458ZM50.9458 6.8722V7.44488H50.3731V6.8722H50.9458ZM50.9458 7.44488V8.01756H50.3731V7.44488H50.9458ZM50.9458 8.01756V8.59024H50.3731V8.01756H50.9458ZM50.3731 8.01756V8.59024H49.8005V8.01756H50.3731ZM50.3731 7.44488V8.01756H49.8005V7.44488H50.3731ZM50.3731 6.8722V7.44488H49.8005V6.8722H50.3731ZM50.3731 6.29951V6.8722H49.8005V6.29951H50.3731ZM52.0912 0V0.572684H51.5185V0H52.0912ZM52.0912 0.572684V1.14537H51.5185V0.572684H52.0912ZM52.0912 1.14537V1.71805H51.5185V1.14537H52.0912ZM52.0912 1.71805V2.29073H51.5185V1.71805H52.0912ZM52.0912 2.29073V2.86342H51.5185V2.29073H52.0912ZM52.0912 5.72683V6.29951H51.5185V5.72683H52.0912ZM52.0912 6.29951V6.8722H51.5185V6.29951H52.0912ZM52.0912 6.8722V7.44488H51.5185V6.8722H52.0912ZM52.0912 7.44488V8.01756H51.5185V7.44488H52.0912ZM52.0912 8.01756V8.59024H51.5185V8.01756H52.0912ZM52.0912 11.4537V12.0263H51.5185V11.4537H52.0912ZM52.0912 12.0263V12.599H51.5185V12.0263H52.0912ZM52.0912 12.599V13.1717H51.5185V12.599H52.0912ZM52.0912 13.1717V13.7444H51.5185V13.1717H52.0912ZM52.0912 13.7444V14.3171H51.5185V13.7444H52.0912Z" fill="#4AA37C"/>
<path d="M39.4815 13.7444V14.3171H38.9089V13.7444H39.4815ZM39.4815 13.1717V13.7444H38.9089V13.1717H39.4815ZM39.4815 12.599V13.1717H38.9089V12.599H39.4815ZM39.4815 12.0263V12.599H38.9089V12.0263H39.4815ZM39.4815 11.4537V12.0263H38.9089V11.4537H39.4815ZM39.4815 10.881V11.4537H38.9089V10.881H39.4815ZM39.4815 10.3083V10.881H38.9089V10.3083H39.4815ZM39.4815 9.73561V10.3083H38.9089V9.73561H39.4815ZM39.4815 9.16293V9.73561H38.9089V9.16293H39.4815ZM39.4815 8.59024V9.16293H38.9089V8.59024H39.4815ZM39.4815 8.01756V8.59024H38.9089V8.01756H39.4815ZM39.4815 7.44488V8.01756H38.9089V7.44488H39.4815ZM39.4815 6.8722V7.44488H38.9089V6.8722H39.4815ZM39.4815 6.29951V6.8722H38.9089V6.29951H39.4815ZM39.4815 5.72683V6.29951H38.9089V5.72683H39.4815ZM40.0542 5.72683V6.29951H39.4815V5.72683H40.0542ZM40.0542 6.29951V6.8722H39.4815V6.29951H40.0542ZM40.0542 6.8722V7.44488H39.4815V6.8722H40.0542ZM40.0542 7.44488V8.01756H39.4815V7.44488H40.0542ZM40.0542 8.01756V8.59024H39.4815V8.01756H40.0542ZM40.0542 8.59024V9.16293H39.4815V8.59024H40.0542ZM40.0542 9.16293V9.73561H39.4815V9.16293H40.0542ZM40.6269 9.73561V10.3083H40.0542V9.73561H40.6269ZM40.6269 10.3083V10.881H40.0542V10.3083H40.6269ZM40.6269 10.881V11.4537H40.0542V10.881H40.6269ZM40.6269 11.4537V12.0263H40.0542V11.4537H40.6269ZM40.6269 12.0263V12.599H40.0542V12.0263H40.6269ZM40.6269 12.599V13.1717H40.0542V12.599H40.6269ZM40.6269 13.1717V13.7444H40.0542V13.1717H40.6269ZM40.6269 13.7444V14.3171H40.0542V13.7444H40.6269ZM41.1996 13.7444V14.3171H40.6269V13.7444H41.1996ZM41.7723 13.7444V14.3171H41.1996V13.7444H41.7723ZM41.7723 13.1717V13.7444H41.1996V13.1717H41.7723ZM41.7723 12.599V13.1717H41.1996V12.599H41.7723ZM41.7723 12.0263V12.599H41.1996V12.0263H41.7723ZM41.7723 11.4537V12.0263H41.1996V11.4537H41.7723ZM41.7723 10.881V11.4537H41.1996V10.881H41.7723ZM41.7723 10.3083V10.881H41.1996V10.3083H41.7723ZM41.7723 9.73561V10.3083H41.1996V9.73561H41.7723ZM41.1996 9.73561V10.3083H40.6269V9.73561H41.1996ZM41.1996 9.16293V9.73561H40.6269V9.16293H41.1996ZM41.1996 10.3083V10.881H40.6269V10.3083H41.1996ZM41.1996 10.881V11.4537H40.6269V10.881H41.1996ZM41.1996 11.4537V12.0263H40.6269V11.4537H41.1996ZM41.1996 12.0263V12.599H40.6269V12.0263H41.1996ZM41.1996 12.599V13.1717H40.6269V12.599H41.1996ZM41.1996 13.1717V13.7444H40.6269V13.1717H41.1996ZM40.0542 13.7444V14.3171H39.4815V13.7444H40.0542ZM40.0542 13.1717V13.7444H39.4815V13.1717H40.0542ZM40.0542 12.599V13.1717H39.4815V12.599H40.0542ZM40.0542 12.0263V12.599H39.4815V12.0263H40.0542ZM40.0542 11.4537V12.0263H39.4815V11.4537H40.0542ZM40.0542 10.881V11.4537H39.4815V10.881H40.0542ZM40.0542 10.3083V10.881H39.4815V10.3083H40.0542ZM40.0542 9.73561V10.3083H39.4815V9.73561H40.0542ZM39.4815 0V0.572684H38.9089V0H39.4815ZM39.4815 0.572684V1.14537H38.9089V0.572684H39.4815ZM39.4815 1.14537V1.71805H38.9089V1.14537H39.4815ZM39.4815 1.71805V2.29073H38.9089V1.71805H39.4815ZM39.4815 2.29073V2.86342H38.9089V2.29073H39.4815ZM39.4815 2.86342V3.4361H38.9089V2.86342H39.4815ZM39.4815 3.4361V4.00878H38.9089V3.4361H39.4815ZM39.4815 4.00878V4.58146H38.9089V4.00878H39.4815ZM39.4815 4.58146V5.15415H38.9089V4.58146H39.4815ZM39.4815 5.15415V5.72683H38.9089V5.15415H39.4815ZM41.1996 0V0.572684H40.6269V0H41.1996ZM41.1996 0.572684V1.14537H40.6269V0.572684H41.1996ZM41.1996 1.14537V1.71805H40.6269V1.14537H41.1996ZM41.1996 1.71805V2.29073H40.6269V1.71805H41.1996ZM41.1996 2.29073V2.86342H40.6269V2.29073H41.1996ZM41.1996 2.86342V3.4361H40.6269V2.86342H41.1996ZM41.1996 4.00878V4.58146H40.6269V4.00878H41.1996ZM41.1996 4.58146V5.15415H40.6269V4.58146H41.1996ZM41.1996 5.15415V5.72683H40.6269V5.15415H41.1996ZM41.1996 5.72683V6.29951H40.6269V5.72683H41.1996ZM41.1996 6.29951V6.8722H40.6269V6.29951H41.1996ZM41.1996 6.8722V7.44488H40.6269V6.8722H41.1996ZM41.1996 7.44488V8.01756H40.6269V7.44488H41.1996ZM41.7723 8.01756V8.59024H41.1996V8.01756H41.7723ZM41.7723 8.59024V9.16293H41.1996V8.59024H41.7723ZM41.7723 9.16293V9.73561H41.1996V9.16293H41.7723ZM41.7723 7.44488V8.01756H41.1996V7.44488H41.7723ZM41.7723 6.8722V7.44488H41.1996V6.8722H41.7723ZM41.7723 6.29951V6.8722H41.1996V6.29951H41.7723ZM41.7723 5.72683V6.29951H41.1996V5.72683H41.7723ZM41.7723 5.15415V5.72683H41.1996V5.15415H41.7723ZM41.7723 4.58146V5.15415H41.1996V4.58146H41.7723ZM41.7723 4.00878V4.58146H41.1996V4.00878H41.7723ZM41.7723 3.4361V4.00878H41.1996V3.4361H41.7723ZM41.7723 2.86342V3.4361H41.1996V2.86342H41.7723ZM41.7723 2.29073V2.86342H41.1996V2.29073H41.7723ZM41.1996 3.4361V4.00878H40.6269V3.4361H41.1996ZM41.7723 1.71805V2.29073H41.1996V1.71805H41.7723ZM41.7723 1.14537V1.71805H41.1996V1.14537H41.7723ZM41.7723 0.572684V1.14537H41.1996V0.572684H41.7723ZM41.7723 0V0.572684H41.1996V0H41.7723ZM40.6269 0V0.572684H40.0542V0H40.6269ZM40.0542 0V0.572684H39.4815V0H40.0542ZM40.0542 0.572684V1.14537H39.4815V0.572684H40.0542ZM40.6269 0.572684V1.14537H40.0542V0.572684H40.6269ZM40.6269 1.14537V1.71805H40.0542V1.14537H40.6269ZM40.6269 1.71805V2.29073H40.0542V1.71805H40.6269ZM40.6269 2.29073V2.86342H40.0542V2.29073H40.6269ZM40.6269 2.86342V3.4361H40.0542V2.86342H40.6269ZM40.6269 3.4361V4.00878H40.0542V3.4361H40.6269ZM40.6269 4.00878V4.58146H40.0542V4.00878H40.6269ZM40.0542 4.58146V5.15415H39.4815V4.58146H40.0542ZM40.0542 5.15415V5.72683H39.4815V5.15415H40.0542ZM40.0542 4.00878V4.58146H39.4815V4.00878H40.0542ZM40.0542 3.4361V4.00878H39.4815V3.4361H40.0542ZM40.0542 2.86342V3.4361H39.4815V2.86342H40.0542ZM40.0542 2.29073V2.86342H39.4815V2.29073H40.0542ZM40.0542 1.71805V2.29073H39.4815V1.71805H40.0542ZM40.0542 1.14537V1.71805H39.4815V1.14537H40.0542ZM40.6269 4.58146V5.15415H40.0542V4.58146H40.6269ZM40.6269 5.15415V5.72683H40.0542V5.15415H40.6269ZM40.6269 5.72683V6.29951H40.0542V5.72683H40.6269ZM40.6269 6.29951V6.8722H40.0542V6.29951H40.6269ZM40.6269 6.8722V7.44488H40.0542V6.8722H40.6269ZM40.6269 7.44488V8.01756H40.0542V7.44488H40.6269ZM40.6269 8.01756V8.59024H40.0542V8.01756H40.6269ZM40.6269 8.59024V9.16293H40.0542V8.59024H40.6269ZM40.6269 9.16293V9.73561H40.0542V9.16293H40.6269ZM41.1996 8.59024V9.16293H40.6269V8.59024H41.1996ZM41.1996 8.01756V8.59024H40.6269V8.01756H41.1996ZM38.9089 0V0.572684H38.3362V0H38.9089ZM38.3362 0V0.572684H37.7635V0H38.3362ZM37.7635 0V0.572684H37.1908V0H37.7635ZM37.1908 0V0.572684H36.6181V0H37.1908ZM36.6181 0V0.572684H36.0454V0H36.6181ZM36.6181 0.572684V1.14537H36.0454V0.572684H36.6181ZM36.6181 1.14537V1.71805H36.0454V1.14537H36.6181ZM37.1908 0.572684V1.14537H36.6181V0.572684H37.1908ZM37.7635 0.572684V1.14537H37.1908V0.572684H37.7635ZM38.3362 0.572684V1.14537H37.7635V0.572684H38.3362ZM38.9089 1.14537V1.71805H38.3362V1.14537H38.9089ZM38.9089 0.572684V1.14537H38.3362V0.572684H38.9089ZM38.3362 1.14537V1.71805H37.7635V1.14537H38.3362ZM37.7635 1.14537V1.71805H37.1908V1.14537H37.7635ZM37.1908 1.14537V1.71805H36.6181V1.14537H37.1908ZM42.345 0V0.572684H41.7723V0H42.345ZM42.9176 0V0.572684H42.345V0H42.9176ZM43.4903 0V0.572684H42.9176V0H43.4903ZM44.063 0V0.572684H43.4903V0H44.063ZM44.6357 0V0.572684H44.063V0H44.6357ZM44.6357 0.572684V1.14537H44.063V0.572684H44.6357ZM44.063 0.572684V1.14537H43.4903V0.572684H44.063ZM43.4903 0.572684V1.14537H42.9176V0.572684H43.4903ZM42.9176 0.572684V1.14537H42.345V0.572684H42.9176ZM42.345 0.572684V1.14537H41.7723V0.572684H42.345ZM42.345 1.14537V1.71805H41.7723V1.14537H42.345ZM42.9176 1.14537V1.71805H42.345V1.14537H42.9176ZM43.4903 1.14537V1.71805H42.9176V1.14537H43.4903ZM44.063 1.14537V1.71805H43.4903V1.14537H44.063ZM44.6357 1.14537V1.71805H44.063V1.14537H44.6357ZM36.6181 1.71805V2.29073H36.0454V1.71805H36.6181ZM36.6181 2.29073V2.86342H36.0454V2.29073H36.6181ZM37.1908 2.29073V2.86342H36.6181V2.29073H37.1908ZM37.7635 2.29073V2.86342H37.1908V2.29073H37.7635ZM38.3362 2.29073V2.86342H37.7635V2.29073H38.3362ZM38.9089 2.29073V2.86342H38.3362V2.29073H38.9089ZM38.9089 1.71805V2.29073H38.3362V1.71805H38.9089ZM38.3362 1.71805V2.29073H37.7635V1.71805H38.3362ZM37.7635 1.71805V2.29073H37.1908V1.71805H37.7635ZM37.1908 1.71805V2.29073H36.6181V1.71805H37.1908ZM44.6357 1.71805V2.29073H44.063V1.71805H44.6357ZM44.6357 2.29073V2.86342H44.063V2.29073H44.6357ZM44.063 2.29073V2.86342H43.4903V2.29073H44.063ZM43.4903 2.29073V2.86342H42.9176V2.29073H43.4903ZM42.9176 2.29073V2.86342H42.345V2.29073H42.9176ZM42.345 2.29073V2.86342H41.7723V2.29073H42.345ZM42.345 1.71805V2.29073H41.7723V1.71805H42.345ZM42.9176 1.71805V2.29073H42.345V1.71805H42.9176ZM43.4903 1.71805V2.29073H42.9176V1.71805H43.4903ZM44.063 1.71805V2.29073H43.4903V1.71805H44.063Z" fill="#4AA37C"/>
<path d="M24.603 11.4537V12.0263H24.0303V11.4537H24.603ZM24.603 10.881V11.4537H24.0303V10.881H24.603ZM24.603 10.3083V10.881H24.0303V10.3083H24.603ZM24.603 9.73561V10.3083H24.0303V9.73561H24.603ZM24.603 9.16293V9.73561H24.0303V9.16293H24.603ZM24.603 8.59024V9.16293H24.0303V8.59024H24.603ZM24.603 8.01756V8.59024H24.0303V8.01756H24.603ZM24.603 7.44488V8.01756H24.0303V7.44488H24.603ZM24.603 6.8722V7.44488H24.0303V6.8722H24.603ZM24.603 6.29951V6.8722H24.0303V6.29951H24.603ZM24.603 5.72683V6.29951H24.0303V5.72683H24.603ZM25.1757 5.72683V6.29951H24.603V5.72683H25.1757ZM25.1757 6.29951V6.8722H24.603V6.29951H25.1757ZM25.1757 6.8722V7.44488H24.603V6.8722H25.1757ZM25.1757 7.44488V8.01756H24.603V7.44488H25.1757ZM25.1757 8.01756V8.59024H24.603V8.01756H25.1757ZM25.1757 8.59024V9.16293H24.603V8.59024H25.1757ZM25.1757 9.16293V9.73561H24.603V9.16293H25.1757ZM25.7484 9.73561V10.3083H25.1757V9.73561H25.7484ZM25.7484 10.3083V10.881H25.1757V10.3083H25.7484ZM25.7484 10.881V11.4537H25.1757V10.881H25.7484ZM25.7484 11.4537V12.0263H25.1757V11.4537H25.7484ZM25.7484 12.0263V12.599H25.1757V12.0263H25.7484ZM25.7484 12.599V13.1717H25.1757V12.599H25.7484ZM25.7484 13.1717V13.7444H25.1757V13.1717H25.7484ZM26.8937 13.7444V14.3171H26.3211V13.7444H26.8937ZM26.8937 13.1717V13.7444H26.3211V13.1717H26.8937ZM26.8937 12.599V13.1717H26.3211V12.599H26.8937ZM26.8937 12.0263V12.599H26.3211V12.0263H26.8937ZM26.8937 11.4537V12.0263H26.3211V11.4537H26.8937ZM26.8937 10.881V11.4537H26.3211V10.881H26.8937ZM26.8937 10.3083V10.881H26.3211V10.3083H26.8937ZM26.8937 9.73561V10.3083H26.3211V9.73561H26.8937ZM26.3211 9.73561V10.3083H25.7484V9.73561H26.3211ZM26.3211 9.16293V9.73561H25.7484V9.16293H26.3211ZM26.3211 10.3083V10.881H25.7484V10.3083H26.3211ZM26.3211 10.881V11.4537H25.7484V10.881H26.3211ZM26.3211 11.4537V12.0263H25.7484V11.4537H26.3211ZM26.3211 12.0263V12.599H25.7484V12.0263H26.3211ZM26.3211 12.599V13.1717H25.7484V12.599H26.3211ZM26.3211 13.1717V13.7444H25.7484V13.1717H26.3211ZM25.1757 12.599V13.1717H24.603V12.599H25.1757ZM25.1757 12.0263V12.599H24.603V12.0263H25.1757ZM25.1757 11.4537V12.0263H24.603V11.4537H25.1757ZM25.1757 10.881V11.4537H24.603V10.881H25.1757ZM25.1757 10.3083V10.881H24.603V10.3083H25.1757ZM25.1757 9.73561V10.3083H24.603V9.73561H25.1757ZM24.603 5.15415V5.72683H24.0303V5.15415H24.603ZM26.3211 5.15415V5.72683H25.7484V5.15415H26.3211ZM26.3211 5.72683V6.29951H25.7484V5.72683H26.3211ZM26.3211 6.29951V6.8722H25.7484V6.29951H26.3211ZM26.3211 6.8722V7.44488H25.7484V6.8722H26.3211ZM26.3211 7.44488V8.01756H25.7484V7.44488H26.3211ZM26.8937 8.01756V8.59024H26.3211V8.01756H26.8937ZM26.8937 8.59024V9.16293H26.3211V8.59024H26.8937ZM26.8937 9.16293V9.73561H26.3211V9.16293H26.8937ZM26.8937 7.44488V8.01756H26.3211V7.44488H26.8937ZM26.8937 6.8722V7.44488H26.3211V6.8722H26.8937ZM26.8937 6.29951V6.8722H26.3211V6.29951H26.8937ZM26.8937 5.72683V6.29951H26.3211V5.72683H26.8937ZM26.8937 5.15415V5.72683H26.3211V5.15415H26.8937ZM25.1757 5.15415V5.72683H24.603V5.15415H25.1757ZM25.7484 5.15415V5.72683H25.1757V5.15415H25.7484ZM25.7484 5.72683V6.29951H25.1757V5.72683H25.7484ZM25.7484 6.29951V6.8722H25.1757V6.29951H25.7484ZM25.7484 6.8722V7.44488H25.1757V6.8722H25.7484ZM25.7484 7.44488V8.01756H25.1757V7.44488H25.7484ZM25.7484 8.01756V8.59024H25.1757V8.01756H25.7484ZM25.7484 8.59024V9.16293H25.1757V8.59024H25.7484ZM25.7484 9.16293V9.73561H25.1757V9.16293H25.7484ZM26.3211 8.59024V9.16293H25.7484V8.59024H26.3211ZM26.3211 8.01756V8.59024H25.7484V8.01756H26.3211ZM31.4752 13.7444V14.3171H30.9025V13.7444H31.4752ZM31.4752 13.1717V13.7444H30.9025V13.1717H31.4752ZM31.4752 12.599V13.1717H30.9025V12.599H31.4752ZM31.4752 12.0263V12.599H30.9025V12.0263H31.4752ZM31.4752 11.4537V12.0263H30.9025V11.4537H31.4752ZM31.4752 10.881V11.4537H30.9025V10.881H31.4752ZM31.4752 10.3083V10.881H30.9025V10.3083H31.4752ZM31.4752 9.73561V10.3083H30.9025V9.73561H31.4752ZM31.4752 9.16293V9.73561H30.9025V9.16293H31.4752ZM31.4752 8.59024V9.16293H30.9025V8.59024H31.4752ZM31.4752 8.01756V8.59024H30.9025V8.01756H31.4752ZM31.4752 7.44488V8.01756H30.9025V7.44488H31.4752ZM31.4752 6.8722V7.44488H30.9025V6.8722H31.4752ZM31.4752 6.29951V6.8722H30.9025V6.29951H31.4752ZM31.4752 5.72683V6.29951H30.9025V5.72683H31.4752ZM32.0479 5.72683V6.29951H31.4752V5.72683H32.0479ZM32.0479 6.29951V6.8722H31.4752V6.29951H32.0479ZM32.0479 6.8722V7.44488H31.4752V6.8722H32.0479ZM32.0479 7.44488V8.01756H31.4752V7.44488H32.0479ZM32.0479 8.01756V8.59024H31.4752V8.01756H32.0479ZM32.0479 8.59024V9.16293H31.4752V8.59024H32.0479ZM32.0479 9.16293V9.73561H31.4752V9.16293H32.0479ZM32.6206 9.73561V10.3083H32.0479V9.73561H32.6206ZM32.6206 10.3083V10.881H32.0479V10.3083H32.6206ZM32.6206 10.881V11.4537H32.0479V10.881H32.6206ZM32.6206 11.4537V12.0263H32.0479V11.4537H32.6206ZM32.6206 12.0263V12.599H32.0479V12.0263H32.6206ZM32.6206 12.599V13.1717H32.0479V12.599H32.6206ZM32.6206 13.1717V13.7444H32.0479V13.1717H32.6206ZM33.7659 11.4537V12.0263H33.1932V11.4537H33.7659ZM33.7659 10.881V11.4537H33.1932V10.881H33.7659ZM33.7659 10.3083V10.881H33.1932V10.3083H33.7659ZM33.7659 9.73561V10.3083H33.1932V9.73561H33.7659ZM33.1932 9.73561V10.3083H32.6206V9.73561H33.1932ZM33.1932 9.16293V9.73561H32.6206V9.16293H33.1932ZM33.1932 10.3083V10.881H32.6206V10.3083H33.1932ZM33.1932 10.881V11.4537H32.6206V10.881H33.1932ZM33.1932 11.4537V12.0263H32.6206V11.4537H33.1932ZM33.1932 12.0263V12.599H32.6206V12.0263H33.1932ZM33.1932 12.599V13.1717H32.6206V12.599H33.1932ZM32.0479 13.1717V13.7444H31.4752V13.1717H32.0479ZM32.0479 12.599V13.1717H31.4752V12.599H32.0479ZM32.0479 12.0263V12.599H31.4752V12.0263H32.0479ZM32.0479 11.4537V12.0263H31.4752V11.4537H32.0479ZM32.0479 10.881V11.4537H31.4752V10.881H32.0479ZM32.0479 10.3083V10.881H31.4752V10.3083H32.0479ZM32.0479 9.73561V10.3083H31.4752V9.73561H32.0479ZM31.4752 5.15415V5.72683H30.9025V5.15415H31.4752ZM33.1932 5.15415V5.72683H32.6206V5.15415H33.1932ZM33.1932 5.72683V6.29951H32.6206V5.72683H33.1932ZM33.1932 6.29951V6.8722H32.6206V6.29951H33.1932ZM33.1932 6.8722V7.44488H32.6206V6.8722H33.1932ZM33.1932 7.44488V8.01756H32.6206V7.44488H33.1932ZM33.7659 8.01756V8.59024H33.1932V8.01756H33.7659ZM33.7659 8.59024V9.16293H33.1932V8.59024H33.7659ZM33.7659 9.16293V9.73561H33.1932V9.16293H33.7659ZM33.7659 7.44488V8.01756H33.1932V7.44488H33.7659ZM33.7659 6.8722V7.44488H33.1932V6.8722H33.7659ZM33.7659 6.29951V6.8722H33.1932V6.29951H33.7659ZM33.7659 5.72683V6.29951H33.1932V5.72683H33.7659ZM33.7659 5.15415V5.72683H33.1932V5.15415H33.7659ZM32.0479 5.15415V5.72683H31.4752V5.15415H32.0479ZM32.6206 5.15415V5.72683H32.0479V5.15415H32.6206ZM32.6206 5.72683V6.29951H32.0479V5.72683H32.6206ZM32.6206 6.29951V6.8722H32.0479V6.29951H32.6206ZM32.6206 6.8722V7.44488H32.0479V6.8722H32.6206ZM32.6206 7.44488V8.01756H32.0479V7.44488H32.6206ZM32.6206 8.01756V8.59024H32.0479V8.01756H32.6206ZM32.6206 8.59024V9.16293H32.0479V8.59024H32.6206ZM32.6206 9.16293V9.73561H32.0479V9.16293H32.6206ZM33.1932 8.59024V9.16293H32.6206V8.59024H33.1932ZM33.1932 8.01756V8.59024H32.6206V8.01756H33.1932ZM27.4664 13.7444V14.3171H26.8937V13.7444H27.4664ZM28.0391 13.7444V14.3171H27.4664V13.7444H28.0391ZM28.6118 13.7444V14.3171H28.0391V13.7444H28.6118ZM29.1845 13.7444V14.3171H28.6118V13.7444H29.1845ZM30.3298 13.7444V14.3171H29.7571V13.7444H30.3298ZM30.9025 13.7444V14.3171H30.3298V13.7444H30.9025ZM30.9025 13.1717V13.7444H30.3298V13.1717H30.9025ZM30.3298 13.1717V13.7444H29.7571V13.1717H30.3298ZM29.1845 13.1717V13.7444H28.6118V13.1717H29.1845ZM28.6118 13.1717V13.7444H28.0391V13.1717H28.6118ZM28.0391 13.1717V13.7444H27.4664V13.1717H28.0391ZM27.4664 13.1717V13.7444H26.8937V13.1717H27.4664ZM27.4664 12.599V13.1717H26.8937V12.599H27.4664ZM28.0391 12.599V13.1717H27.4664V12.599H28.0391ZM28.6118 12.599V13.1717H28.0391V12.599H28.6118ZM29.1845 12.599V13.1717H28.6118V12.599H29.1845ZM30.3298 12.599V13.1717H29.7571V12.599H30.3298ZM30.9025 12.599V13.1717H30.3298V12.599H30.9025ZM30.9025 12.0263V12.599H30.3298V12.0263H30.9025ZM30.3298 12.0263V12.599H29.7571V12.0263H30.3298ZM29.1845 12.0263V12.599H28.6118V12.0263H29.1845ZM28.6118 12.0263V12.599H28.0391V12.0263H28.6118ZM28.0391 12.0263V12.599H27.4664V12.0263H28.0391ZM27.4664 12.0263V12.599H26.8937V12.0263H27.4664ZM27.4664 11.4537V12.0263H26.8937V11.4537H27.4664ZM30.9025 11.4537V12.0263H30.3298V11.4537H30.9025ZM33.1932 2.86342V2.29073H33.7659V2.86342H33.1932ZM33.1932 3.4361V2.86342H33.7659V3.4361H33.1932ZM33.1932 4.00878V3.4361H33.7659V4.00878H33.1932ZM32.0479 4.00878V3.4361H32.6206V4.00878H32.0479ZM32.0479 3.4361V2.86342H32.6206V3.4361H32.0479ZM32.0479 2.86342V2.29073H32.6206V2.86342H32.0479ZM32.0479 2.29073V1.71805H32.6206V2.29073H32.0479ZM32.0479 1.71805V1.14537H32.6206V1.71805H32.0479ZM32.0479 1.14537V0.572684H32.6206V1.14537H32.0479ZM30.9025 0.572684V0H31.4752V0.572684H30.9025ZM30.9025 1.14537V0.572684H31.4752V1.14537H30.9025ZM30.9025 1.71805V1.14537H31.4752V1.71805H30.9025ZM30.9025 2.29073V1.71805H31.4752V2.29073H30.9025ZM30.9025 2.86342V2.29073H31.4752V2.86342H30.9025ZM30.9025 3.4361V2.86342H31.4752V3.4361H30.9025ZM30.9025 4.00878V3.4361H31.4752V4.00878H30.9025ZM31.4752 4.00878V3.4361H32.0479V4.00878H31.4752ZM31.4752 3.4361V2.86342H32.0479V3.4361H31.4752ZM31.4752 2.86342V2.29073H32.0479V2.86342H31.4752ZM31.4752 2.29073V1.71805H32.0479V2.29073H31.4752ZM31.4752 1.71805V1.14537H32.0479V1.71805H31.4752ZM31.4752 1.14537V0.572684H32.0479V1.14537H31.4752ZM32.6206 1.71805V1.14537H33.1932V1.71805H32.6206ZM32.6206 2.29073V1.71805H33.1932V2.29073H32.6206ZM32.6206 2.86342V2.29073H33.1932V2.86342H32.6206ZM32.6206 3.4361V2.86342H33.1932V3.4361H32.6206ZM32.6206 4.00878V3.4361H33.1932V4.00878H32.6206ZM26.3211 0.572684V0H26.8937V0.572684H26.3211ZM26.3211 1.14537V0.572684H26.8937V1.14537H26.3211ZM26.3211 1.71805V1.14537H26.8937V1.71805H26.3211ZM26.3211 2.29073V1.71805H26.8937V2.29073H26.3211ZM26.3211 2.86342V2.29073H26.8937V2.86342H26.3211ZM26.3211 3.4361V2.86342H26.8937V3.4361H26.3211ZM26.3211 4.00878V3.4361H26.8937V4.00878H26.3211ZM25.1757 4.00878V3.4361H25.7484V4.00878H25.1757ZM25.1757 3.4361V2.86342H25.7484V3.4361H25.1757ZM25.1757 2.86342V2.29073H25.7484V2.86342H25.1757ZM25.1757 2.29073V1.71805H25.7484V2.29073H25.1757ZM25.1757 1.71805V1.14537H25.7484V1.71805H25.1757ZM25.1757 1.14537V0.572684H25.7484V1.14537H25.1757ZM24.0303 2.86342V2.29073H24.603V2.86342H24.0303ZM24.0303 3.4361V2.86342H24.603V3.4361H24.0303ZM24.0303 4.00878V3.4361H24.603V4.00878H24.0303ZM24.603 4.00878V3.4361H25.1757V4.00878H24.603ZM24.603 3.4361V2.86342H25.1757V3.4361H24.603ZM24.603 2.86342V2.29073H25.1757V2.86342H24.603ZM24.603 2.29073V1.71805H25.1757V2.29073H24.603ZM24.603 1.71805V1.14537H25.1757V1.71805H24.603ZM25.7484 1.14537V0.572684H26.3211V1.14537H25.7484ZM25.7484 1.71805V1.14537H26.3211V1.71805H25.7484ZM25.7484 2.29073V1.71805H26.3211V2.29073H25.7484ZM25.7484 2.86342V2.29073H26.3211V2.86342H25.7484ZM25.7484 3.4361V2.86342H26.3211V3.4361H25.7484ZM25.7484 4.00878V3.4361H26.3211V4.00878H25.7484ZM30.3298 0.572684V0H30.9025V0.572684H30.3298ZM29.7571 0.572684V0H30.3298V0.572684H29.7571ZM28.6118 0.572684V0H29.1845V0.572684H28.6118ZM28.0391 0.572684V0H28.6118V0.572684H28.0391ZM27.4664 0.572684V0H28.0391V0.572684H27.4664ZM26.8937 0.572684V0H27.4664V0.572684H26.8937ZM26.8937 1.14537V0.572684H27.4664V1.14537H26.8937ZM27.4664 1.14537V0.572684H28.0391V1.14537H27.4664ZM28.0391 1.14537V0.572684H28.6118V1.14537H28.0391ZM28.6118 1.14537V0.572684H29.1845V1.14537H28.6118ZM29.7571 1.14537V0.572684H30.3298V1.14537H29.7571ZM30.3298 1.14537V0.572684H30.9025V1.14537H30.3298ZM30.3298 1.71805V1.14537H30.9025V1.71805H30.3298ZM29.7571 1.71805V1.14537H30.3298V1.71805H29.7571ZM28.6118 1.71805V1.14537H29.1845V1.71805H28.6118ZM28.0391 1.71805V1.14537H28.6118V1.71805H28.0391ZM27.4664 1.71805V1.14537H28.0391V1.71805H27.4664ZM26.8937 1.71805V1.14537H27.4664V1.71805H26.8937ZM26.8937 2.29073V1.71805H27.4664V2.29073H26.8937ZM27.4664 2.29073V1.71805H28.0391V2.29073H27.4664ZM28.0391 2.29073V1.71805H28.6118V2.29073H28.0391ZM28.6118 2.29073V1.71805H29.1845V2.29073H28.6118ZM29.7571 2.29073V1.71805H30.3298V2.29073H29.7571ZM30.3298 2.29073V1.71805H30.9025V2.29073H30.3298ZM30.3298 2.86342V2.29073H30.9025V2.86342H30.3298ZM26.8937 2.86342V2.29073H27.4664V2.86342H26.8937ZM24.603 4.58146V5.15415H24.0303V4.58146H24.603ZM25.1757 4.58146V5.15415H24.603V4.58146H25.1757ZM24.603 4.00878V4.58146H24.0303V4.00878H24.603ZM26.3211 4.00878V4.58146H25.7484V4.00878H26.3211ZM26.3211 4.58146V5.15415H25.7484V4.58146H26.3211ZM26.8937 4.58146V5.15415H26.3211V4.58146H26.8937ZM26.8937 4.00878V4.58146H26.3211V4.00878H26.8937ZM25.1757 4.00878V4.58146H24.603V4.00878H25.1757ZM25.7484 4.00878V4.58146H25.1757V4.00878H25.7484ZM25.7484 4.58146V5.15415H25.1757V4.58146H25.7484ZM31.4752 4.58146V5.15415H30.9025V4.58146H31.4752ZM32.0479 4.58146V5.15415H31.4752V4.58146H32.0479ZM31.4752 4.00878V4.58146H30.9025V4.00878H31.4752ZM33.1932 4.00878V4.58146H32.6206V4.00878H33.1932ZM33.1932 4.58146V5.15415H32.6206V4.58146H33.1932ZM33.7659 4.58146V5.15415H33.1932V4.58146H33.7659ZM33.7659 4.00878V4.58146H33.1932V4.00878H33.7659ZM32.0479 4.00878V4.58146H31.4752V4.00878H32.0479ZM32.6206 4.00878V4.58146H32.0479V4.00878H32.6206ZM32.6206 4.58146V5.15415H32.0479V4.58146H32.6206ZM28.0391 11.4537V12.0263H27.4664V11.4537H28.0391ZM28.6118 11.4537V12.0263H28.0391V11.4537H28.6118ZM29.1845 11.4537V12.0263H28.6118V11.4537H29.1845ZM30.3298 11.4537V12.0263H29.7571V11.4537H30.3298ZM30.9025 10.881V11.4537H30.3298V10.881H30.9025ZM27.4664 10.881V11.4537H26.8937V10.881H27.4664ZM28.0391 2.29073V2.86342H27.4664V2.29073H28.0391ZM28.6118 2.29073V2.86342H28.0391V2.29073H28.6118ZM29.1845 2.29073V2.86342H28.6118V2.29073H29.1845ZM30.3298 2.29073V2.86342H29.7571V2.29073H30.3298ZM30.9025 2.86342V3.4361H30.3298V2.86342H30.9025ZM27.4664 2.86342V3.4361H26.8937V2.86342H27.4664ZM29.7571 0V0.572684H29.1845V0H29.7571ZM29.7571 0.572684V1.14537H29.1845V0.572684H29.7571ZM29.7571 1.14537V1.71805H29.1845V1.14537H29.7571ZM29.7571 1.71805V2.29073H29.1845V1.71805H29.7571ZM29.7571 2.29073V2.86342H29.1845V2.29073H29.7571ZM29.7571 11.4537V12.0263H29.1845V11.4537H29.7571ZM29.7571 12.0263V12.599H29.1845V12.0263H29.7571ZM29.7571 12.599V13.1717H29.1845V12.599H29.7571ZM29.7571 13.1717V13.7444H29.1845V13.1717H29.7571ZM29.7571 13.7444V14.3171H29.1845V13.7444H29.7571Z" fill="#4AA37C"/>
<path d="M12.5878 13.7444V14.3171H12.0152V13.7444H12.5878ZM12.5878 13.1717V13.7444H12.0152V13.1717H12.5878ZM12.5878 12.599V13.1717H12.0152V12.599H12.5878ZM12.5878 12.0263V12.599H12.0152V12.0263H12.5878ZM12.5878 11.4537V12.0263H12.0152V11.4537H12.5878ZM12.5878 10.881V11.4537H12.0152V10.881H12.5878ZM12.5878 10.3083V10.881H12.0152V10.3083H12.5878ZM12.5878 9.73561V10.3083H12.0152V9.73561H12.5878ZM12.5878 9.16293V9.73561H12.0152V9.16293H12.5878ZM12.5878 8.59024V9.16293H12.0152V8.59024H12.5878ZM12.5878 8.01756V8.59024H12.0152V8.01756H12.5878ZM12.5878 7.44488V8.01756H12.0152V7.44488H12.5878ZM12.5878 6.8722V7.44488H12.0152V6.8722H12.5878ZM12.5878 6.29951V6.8722H12.0152V6.29951H12.5878ZM12.5878 5.72683V6.29951H12.0152V5.72683H12.5878ZM13.1605 5.72683V6.29951H12.5878V5.72683H13.1605ZM13.1605 6.29951V6.8722H12.5878V6.29951H13.1605ZM13.1605 6.8722V7.44488H12.5878V6.8722H13.1605ZM13.1605 7.44488V8.01756H12.5878V7.44488H13.1605ZM13.1605 8.01756V8.59024H12.5878V8.01756H13.1605ZM13.1605 8.59024V9.16293H12.5878V8.59024H13.1605ZM13.1605 9.16293V9.73561H12.5878V9.16293H13.1605ZM13.7332 9.73561V10.3083H13.1605V9.73561H13.7332ZM13.7332 10.3083V10.881H13.1605V10.3083H13.7332ZM13.7332 10.881V11.4537H13.1605V10.881H13.7332ZM13.7332 11.4537V12.0263H13.1605V11.4537H13.7332ZM13.7332 12.0263V12.599H13.1605V12.0263H13.7332ZM13.7332 12.599V13.1717H13.1605V12.599H13.7332ZM13.7332 13.1717V13.7444H13.1605V13.1717H13.7332ZM13.7332 13.7444V14.3171H13.1605V13.7444H13.7332ZM14.3059 13.7444V14.3171H13.7332V13.7444H14.3059ZM14.8786 13.7444V14.3171H14.3059V13.7444H14.8786ZM14.8786 13.1717V13.7444H14.3059V13.1717H14.8786ZM14.8786 12.599V13.1717H14.3059V12.599H14.8786ZM14.8786 12.0263V12.599H14.3059V12.0263H14.8786ZM14.8786 11.4537V12.0263H14.3059V11.4537H14.8786ZM14.8786 10.881V11.4537H14.3059V10.881H14.8786ZM14.8786 10.3083V10.881H14.3059V10.3083H14.8786ZM14.8786 9.73561V10.3083H14.3059V9.73561H14.8786ZM14.3059 9.73561V10.3083H13.7332V9.73561H14.3059ZM14.3059 9.16293V9.73561H13.7332V9.16293H14.3059ZM14.3059 10.3083V10.881H13.7332V10.3083H14.3059ZM14.3059 10.881V11.4537H13.7332V10.881H14.3059ZM14.3059 11.4537V12.0263H13.7332V11.4537H14.3059ZM14.3059 12.0263V12.599H13.7332V12.0263H14.3059ZM14.3059 12.599V13.1717H13.7332V12.599H14.3059ZM14.3059 13.1717V13.7444H13.7332V13.1717H14.3059ZM13.1605 13.7444V14.3171H12.5878V13.7444H13.1605ZM13.1605 13.1717V13.7444H12.5878V13.1717H13.1605ZM13.1605 12.599V13.1717H12.5878V12.599H13.1605ZM13.1605 12.0263V12.599H12.5878V12.0263H13.1605ZM13.1605 11.4537V12.0263H12.5878V11.4537H13.1605ZM13.1605 10.881V11.4537H12.5878V10.881H13.1605ZM13.1605 10.3083V10.881H12.5878V10.3083H13.1605ZM13.1605 9.73561V10.3083H12.5878V9.73561H13.1605ZM12.5878 0V0.572684H12.0152V0H12.5878ZM12.5878 0.572684V1.14537H12.0152V0.572684H12.5878ZM12.5878 1.14537V1.71805H12.0152V1.14537H12.5878ZM12.5878 1.71805V2.29073H12.0152V1.71805H12.5878ZM12.5878 2.29073V2.86342H12.0152V2.29073H12.5878ZM12.5878 2.86342V3.4361H12.0152V2.86342H12.5878ZM12.5878 3.4361V4.00878H12.0152V3.4361H12.5878ZM12.5878 4.00878V4.58146H12.0152V4.00878H12.5878ZM12.5878 4.58146V5.15415H12.0152V4.58146H12.5878ZM12.5878 5.15415V5.72683H12.0152V5.15415H12.5878ZM14.3059 0V0.572684H13.7332V0H14.3059ZM14.3059 0.572684V1.14537H13.7332V0.572684H14.3059ZM14.3059 1.14537V1.71805H13.7332V1.14537H14.3059ZM14.3059 1.71805V2.29073H13.7332V1.71805H14.3059ZM14.3059 2.29073V2.86342H13.7332V2.29073H14.3059ZM14.3059 2.86342V3.4361H13.7332V2.86342H14.3059ZM14.3059 4.00878V4.58146H13.7332V4.00878H14.3059ZM14.3059 4.58146V5.15415H13.7332V4.58146H14.3059ZM14.3059 5.15415V5.72683H13.7332V5.15415H14.3059ZM14.3059 5.72683V6.29951H13.7332V5.72683H14.3059ZM14.3059 6.29951V6.8722H13.7332V6.29951H14.3059ZM14.3059 6.8722V7.44488H13.7332V6.8722H14.3059ZM14.3059 7.44488V8.01756H13.7332V7.44488H14.3059ZM14.8786 8.01756V8.59024H14.3059V8.01756H14.8786ZM14.8786 8.59024V9.16293H14.3059V8.59024H14.8786ZM14.8786 9.16293V9.73561H14.3059V9.16293H14.8786ZM14.8786 7.44488V8.01756H14.3059V7.44488H14.8786ZM14.8786 6.8722V7.44488H14.3059V6.8722H14.8786ZM14.8786 6.29951V6.8722H14.3059V6.29951H14.8786ZM14.8786 5.72683V6.29951H14.3059V5.72683H14.8786ZM14.8786 5.15415V5.72683H14.3059V5.15415H14.8786ZM14.8786 4.58146V5.15415H14.3059V4.58146H14.8786ZM14.8786 4.00878V4.58146H14.3059V4.00878H14.8786ZM14.8786 3.4361V4.00878H14.3059V3.4361H14.8786ZM14.8786 2.86342V3.4361H14.3059V2.86342H14.8786ZM14.8786 2.29073V2.86342H14.3059V2.29073H14.8786ZM14.3059 3.4361V4.00878H13.7332V3.4361H14.3059ZM14.8786 1.71805V2.29073H14.3059V1.71805H14.8786ZM14.8786 1.14537V1.71805H14.3059V1.14537H14.8786ZM14.8786 0.572684V1.14537H14.3059V0.572684H14.8786ZM14.8786 0V0.572684H14.3059V0H14.8786ZM13.7332 0V0.572684H13.1605V0H13.7332ZM13.1605 0V0.572684H12.5878V0H13.1605ZM13.1605 0.572684V1.14537H12.5878V0.572684H13.1605ZM13.7332 0.572684V1.14537H13.1605V0.572684H13.7332ZM13.7332 1.14537V1.71805H13.1605V1.14537H13.7332ZM13.7332 1.71805V2.29073H13.1605V1.71805H13.7332ZM13.7332 2.29073V2.86342H13.1605V2.29073H13.7332ZM13.7332 2.86342V3.4361H13.1605V2.86342H13.7332ZM13.7332 3.4361V4.00878H13.1605V3.4361H13.7332ZM13.7332 4.00878V4.58146H13.1605V4.00878H13.7332ZM13.1605 4.58146V5.15415H12.5878V4.58146H13.1605ZM13.1605 5.15415V5.72683H12.5878V5.15415H13.1605ZM13.1605 4.00878V4.58146H12.5878V4.00878H13.1605ZM13.1605 3.4361V4.00878H12.5878V3.4361H13.1605ZM13.1605 2.86342V3.4361H12.5878V2.86342H13.1605ZM13.1605 2.29073V2.86342H12.5878V2.29073H13.1605ZM13.1605 1.71805V2.29073H12.5878V1.71805H13.1605ZM13.1605 1.14537V1.71805H12.5878V1.14537H13.1605ZM13.7332 4.58146V5.15415H13.1605V4.58146H13.7332ZM13.7332 5.15415V5.72683H13.1605V5.15415H13.7332ZM13.7332 5.72683V6.29951H13.1605V5.72683H13.7332ZM13.7332 6.29951V6.8722H13.1605V6.29951H13.7332ZM13.7332 6.8722V7.44488H13.1605V6.8722H13.7332ZM13.7332 7.44488V8.01756H13.1605V7.44488H13.7332ZM13.7332 8.01756V8.59024H13.1605V8.01756H13.7332ZM13.7332 8.59024V9.16293H13.1605V8.59024H13.7332ZM13.7332 9.16293V9.73561H13.1605V9.16293H13.7332ZM14.3059 8.59024V9.16293H13.7332V8.59024H14.3059ZM14.3059 8.01756V8.59024H13.7332V8.01756H14.3059ZM19.46 0V0.572684H18.8873V0H19.46ZM19.46 0.572684V1.14537H18.8873V0.572684H19.46ZM19.46 1.14537V1.71805H18.8873V1.14537H19.46ZM19.46 2.29073V2.86342H18.8873V2.29073H19.46ZM19.46 2.86342V3.4361H18.8873V2.86342H19.46ZM19.46 3.4361V4.00878H18.8873V3.4361H19.46ZM19.46 4.00878V4.58146H18.8873V4.00878H19.46ZM19.46 4.58146V5.15415H18.8873V4.58146H19.46ZM19.46 5.15415V5.72683H18.8873V5.15415H19.46ZM19.46 5.72683V6.29951H18.8873V5.72683H19.46ZM20.0327 6.29951V6.8722H19.46V6.29951H20.0327ZM20.0327 6.8722V7.44488H19.46V6.8722H20.0327ZM20.0327 7.44488V8.01756H19.46V7.44488H20.0327ZM20.0327 8.01756V8.59024H19.46V8.01756H20.0327ZM20.0327 8.59024V9.16293H19.46V8.59024H20.0327ZM20.0327 9.16293V9.73561H19.46V9.16293H20.0327ZM20.6054 9.16293V9.73561H20.0327V9.16293H20.6054ZM20.6054 9.73561V10.3083H20.0327V9.73561H20.6054ZM20.6054 10.3083V10.881H20.0327V10.3083H20.6054ZM20.6054 10.881V11.4537H20.0327V10.881H20.6054ZM20.6054 11.4537V12.0263H20.0327V11.4537H20.6054ZM20.6054 12.0263V12.599H20.0327V12.0263H20.6054ZM20.6054 12.599V13.1717H20.0327V12.599H20.6054ZM20.6054 13.1717V13.7444H20.0327V13.1717H20.6054ZM20.6054 13.7444V14.3171H20.0327V13.7444H20.6054ZM20.0327 13.7444V14.3171H19.46V13.7444H20.0327ZM20.0327 13.1717V13.7444H19.46V13.1717H20.0327ZM20.0327 12.599V13.1717H19.46V12.599H20.0327ZM20.0327 12.0263V12.599H19.46V12.0263H20.0327ZM20.0327 11.4537V12.0263H19.46V11.4537H20.0327ZM20.0327 10.881V11.4537H19.46V10.881H20.0327ZM20.0327 10.3083V10.881H19.46V10.3083H20.0327ZM19.46 10.3083V10.881H18.8873V10.3083H19.46ZM19.46 9.73561V10.3083H18.8873V9.73561H19.46ZM20.0327 9.73561V10.3083H19.46V9.73561H20.0327ZM19.46 6.29951V6.8722H18.8873V6.29951H19.46ZM19.46 6.8722V7.44488H18.8873V6.8722H19.46ZM19.46 7.44488V8.01756H18.8873V7.44488H19.46ZM19.46 8.01756V8.59024H18.8873V8.01756H19.46ZM19.46 8.59024V9.16293H18.8873V8.59024H19.46ZM19.46 9.16293V9.73561H18.8873V9.16293H19.46ZM19.46 1.71805V2.29073H18.8873V1.71805H19.46ZM19.46 10.881V11.4537H18.8873V10.881H19.46ZM19.46 11.4537V12.0263H18.8873V11.4537H19.46ZM19.46 12.0263V12.599H18.8873V12.0263H19.46ZM19.46 12.599V13.1717H18.8873V12.599H19.46ZM19.46 13.1717V13.7444H18.8873V13.1717H19.46ZM19.46 13.7444V14.3171H18.8873V13.7444H19.46ZM21.1781 13.7444V14.3171H20.6054V13.7444H21.1781ZM21.7508 13.7444V14.3171H21.1781V13.7444H21.7508ZM21.7508 13.1717V13.7444H21.1781V13.1717H21.7508ZM21.7508 12.599V13.1717H21.1781V12.599H21.7508ZM21.7508 12.0263V12.599H21.1781V12.0263H21.7508ZM21.7508 11.4537V12.0263H21.1781V11.4537H21.7508ZM21.7508 10.881V11.4537H21.1781V10.881H21.7508ZM21.7508 10.3083V10.881H21.1781V10.3083H21.7508ZM21.7508 9.73561V10.3083H21.1781V9.73561H21.7508ZM21.7508 9.16293V9.73561H21.1781V9.16293H21.7508ZM21.7508 8.59024V9.16293H21.1781V8.59024H21.7508ZM21.7508 8.01756V8.59024H21.1781V8.01756H21.7508ZM21.7508 7.44488V8.01756H21.1781V7.44488H21.7508ZM21.7508 6.8722V7.44488H21.1781V6.8722H21.7508ZM21.7508 6.29951V6.8722H21.1781V6.29951H21.7508ZM21.7508 5.72683V6.29951H21.1781V5.72683H21.7508ZM21.7508 5.15415V5.72683H21.1781V5.15415H21.7508ZM21.7508 4.58146V5.15415H21.1781V4.58146H21.7508ZM21.7508 4.00878V4.58146H21.1781V4.00878H21.7508ZM21.7508 3.4361V4.00878H21.1781V3.4361H21.7508ZM20.0327 0V0.572684H19.46V0H20.0327ZM20.6054 0V0.572684H20.0327V0H20.6054ZM21.1781 0V0.572684H20.6054V0H21.1781ZM21.7508 0V0.572684H21.1781V0H21.7508ZM21.7508 0.572684V1.14537H21.1781V0.572684H21.7508ZM21.7508 1.14537V1.71805H21.1781V1.14537H21.7508ZM21.7508 1.71805V2.29073H21.1781V1.71805H21.7508ZM21.7508 2.29073V2.86342H21.1781V2.29073H21.7508ZM21.7508 2.86342V3.4361H21.1781V2.86342H21.7508ZM20.0327 0.572684V1.14537H19.46V0.572684H20.0327ZM20.6054 0.572684V1.14537H20.0327V0.572684H20.6054ZM21.1781 0.572684V1.14537H20.6054V0.572684H21.1781ZM21.1781 1.14537V1.71805H20.6054V1.14537H21.1781ZM21.1781 1.71805V2.29073H20.6054V1.71805H21.1781ZM21.1781 2.29073V2.86342H20.6054V2.29073H21.1781ZM21.1781 2.86342V3.4361H20.6054V2.86342H21.1781ZM20.6054 2.86342V3.4361H20.0327V2.86342H20.6054ZM20.6054 2.29073V2.86342H20.0327V2.29073H20.6054ZM20.6054 1.71805V2.29073H20.0327V1.71805H20.6054ZM20.6054 1.14537V1.71805H20.0327V1.14537H20.6054ZM20.0327 1.14537V1.71805H19.46V1.14537H20.0327ZM20.0327 1.71805V2.29073H19.46V1.71805H20.0327ZM20.0327 2.29073V2.86342H19.46V2.29073H20.0327ZM20.0327 2.86342V3.4361H19.46V2.86342H20.0327ZM20.0327 3.4361V4.00878H19.46V3.4361H20.0327ZM20.0327 4.00878V4.58146H19.46V4.00878H20.0327ZM20.0327 4.58146V5.15415H19.46V4.58146H20.0327ZM20.0327 5.15415V5.72683H19.46V5.15415H20.0327ZM20.6054 5.15415V5.72683H20.0327V5.15415H20.6054ZM20.6054 4.58146V5.15415H20.0327V4.58146H20.6054ZM20.6054 4.00878V4.58146H20.0327V4.00878H20.6054ZM20.6054 3.4361V4.00878H20.0327V3.4361H20.6054ZM21.1781 3.4361V4.00878H20.6054V3.4361H21.1781ZM21.1781 4.00878V4.58146H20.6054V4.00878H21.1781ZM21.1781 4.58146V5.15415H20.6054V4.58146H21.1781ZM21.1781 5.15415V5.72683H20.6054V5.15415H21.1781ZM21.1781 5.72683V6.29951H20.6054V5.72683H21.1781ZM21.1781 6.29951V6.8722H20.6054V6.29951H21.1781ZM21.1781 6.8722V7.44488H20.6054V6.8722H21.1781ZM21.1781 7.44488V8.01756H20.6054V7.44488H21.1781ZM21.1781 8.01756V8.59024H20.6054V8.01756H21.1781ZM21.1781 8.59024V9.16293H20.6054V8.59024H21.1781ZM20.6054 8.59024V9.16293H20.0327V8.59024H20.6054ZM20.6054 8.01756V8.59024H20.0327V8.01756H20.6054ZM20.6054 7.44488V8.01756H20.0327V7.44488H20.6054ZM20.6054 6.8722V7.44488H20.0327V6.8722H20.6054ZM20.6054 6.29951V6.8722H20.0327V6.29951H20.6054ZM20.0327 5.72683V6.29951H19.46V5.72683H20.0327ZM20.6054 5.72683V6.29951H20.0327V5.72683H20.6054ZM21.1781 9.16293V9.73561H20.6054V9.16293H21.1781ZM21.1781 9.73561V10.3083H20.6054V9.73561H21.1781ZM21.1781 10.3083V10.881H20.6054V10.3083H21.1781ZM21.1781 10.881V11.4537H20.6054V10.881H21.1781ZM21.1781 11.4537V12.0263H20.6054V11.4537H21.1781ZM21.1781 12.0263V12.599H20.6054V12.0263H21.1781ZM21.1781 12.599V13.1717H20.6054V12.599H21.1781ZM21.1781 13.1717V13.7444H20.6054V13.1717H21.1781ZM15.4512 6.8722V7.44488H14.8786V6.8722H15.4512ZM16.0239 6.8722V7.44488H15.4512V6.8722H16.0239ZM16.5966 6.8722V7.44488H16.0239V6.8722H16.5966ZM17.1693 6.8722V7.44488H16.5966V6.8722H17.1693ZM17.742 6.8722V7.44488H17.1693V6.8722H17.742ZM18.3147 6.8722V7.44488H17.742V6.8722H18.3147ZM18.8873 6.8722V7.44488H18.3147V6.8722H18.8873ZM18.8873 7.44488V8.01756H18.3147V7.44488H18.8873ZM18.3147 7.44488V8.01756H17.742V7.44488H18.3147ZM17.742 7.44488V8.01756H17.1693V7.44488H17.742ZM17.1693 7.44488V8.01756H16.5966V7.44488H17.1693ZM16.5966 7.44488V8.01756H16.0239V7.44488H16.5966ZM16.0239 7.44488V8.01756H15.4512V7.44488H16.0239ZM15.4512 7.44488V8.01756H14.8786V7.44488H15.4512ZM15.4512 5.72683V6.29951H14.8786V5.72683H15.4512ZM16.0239 5.72683V6.29951H15.4512V5.72683H16.0239ZM16.5966 5.72683V6.29951H16.0239V5.72683H16.5966ZM17.1693 5.72683V6.29951H16.5966V5.72683H17.1693ZM17.742 5.72683V6.29951H17.1693V5.72683H17.742ZM18.3147 5.72683V6.29951H17.742V5.72683H18.3147ZM18.8873 5.72683V6.29951H18.3147V5.72683H18.8873ZM18.8873 6.29951V6.8722H18.3147V6.29951H18.8873ZM18.3147 6.29951V6.8722H17.742V6.29951H18.3147ZM17.742 6.29951V6.8722H17.1693V6.29951H17.742ZM17.1693 6.29951V6.8722H16.5966V6.29951H17.1693ZM16.5966 6.29951V6.8722H16.0239V6.29951H16.5966ZM15.4512 8.01756V8.59024H14.8786V8.01756H15.4512ZM16.0239 8.01756V8.59024H15.4512V8.01756H16.0239ZM16.5966 8.01756V8.59024H16.0239V8.01756H16.5966ZM17.1693 8.01756V8.59024H16.5966V8.01756H17.1693ZM17.742 8.01756V8.59024H17.1693V8.01756H17.742ZM18.3147 8.01756V8.59024H17.742V8.01756H18.3147ZM18.8873 8.01756V8.59024H18.3147V8.01756H18.8873ZM16.0239 6.29951V6.8722H15.4512V6.29951H16.0239ZM15.4512 6.29951V6.8722H14.8786V6.29951H15.4512Z" fill="#4AA37C"/>
<path d="M0.572683 11.4537V12.0263H0V11.4537H0.572683ZM0.572683 10.881V11.4537H0V10.881H0.572683ZM0.572683 10.3083V10.881H0V10.3083H0.572683ZM0.572683 9.73561V10.3083H0V9.73561H0.572683ZM0.572683 5.72683V6.29951H0V5.72683H0.572683ZM1.14537 5.72683V6.29951H0.572683V5.72683H1.14537ZM1.14537 6.29951V6.8722H0.572683V6.29951H1.14537ZM1.14537 6.8722V7.44488H0.572683V6.8722H1.14537ZM1.71805 9.73561V10.3083H1.14537V9.73561H1.71805ZM1.71805 10.3083V10.881H1.14537V10.3083H1.71805ZM1.71805 10.881V11.4537H1.14537V10.881H1.71805ZM1.71805 11.4537V12.0263H1.14537V11.4537H1.71805ZM1.71805 12.0263V12.599H1.14537V12.0263H1.71805ZM1.71805 12.599V13.1717H1.14537V12.599H1.71805ZM1.71805 13.1717V13.7444H1.14537V13.1717H1.71805ZM2.86341 13.7444V14.3171H2.29073V13.7444H2.86341ZM2.86341 13.1717V13.7444H2.29073V13.1717H2.86341ZM2.86341 12.599V13.1717H2.29073V12.599H2.86341ZM2.86341 12.0263V12.599H2.29073V12.0263H2.86341ZM2.86341 11.4537V12.0263H2.29073V11.4537H2.86341ZM2.86341 10.881V11.4537H2.29073V10.881H2.86341ZM2.86341 10.3083V10.881H2.29073V10.3083H2.86341ZM2.86341 9.73561V10.3083H2.29073V9.73561H2.86341ZM2.29073 9.73561V10.3083H1.71805V9.73561H2.29073ZM2.29073 10.3083V10.881H1.71805V10.3083H2.29073ZM2.29073 10.881V11.4537H1.71805V10.881H2.29073ZM2.29073 11.4537V12.0263H1.71805V11.4537H2.29073ZM2.29073 12.0263V12.599H1.71805V12.0263H2.29073ZM2.29073 12.599V13.1717H1.71805V12.599H2.29073ZM2.29073 13.1717V13.7444H1.71805V13.1717H2.29073ZM1.14537 12.599V13.1717H0.572683V12.599H1.14537ZM1.14537 12.0263V12.599H0.572683V12.0263H1.14537ZM1.14537 11.4537V12.0263H0.572683V11.4537H1.14537ZM1.14537 10.881V11.4537H0.572683V10.881H1.14537ZM1.14537 10.3083V10.881H0.572683V10.3083H1.14537ZM1.14537 9.73561V10.3083H0.572683V9.73561H1.14537ZM0.572683 5.15415V5.72683H0V5.15415H0.572683ZM2.29073 5.15415V5.72683H1.71805V5.15415H2.29073ZM2.29073 5.72683V6.29951H1.71805V5.72683H2.29073ZM2.29073 6.29951V6.8722H1.71805V6.29951H2.29073ZM2.29073 6.8722V7.44488H1.71805V6.8722H2.29073ZM2.29073 7.44488V8.01756H1.71805V7.44488H2.29073ZM2.86341 8.01756V8.59024H2.29073V8.01756H2.86341ZM2.86341 7.44488V8.01756H2.29073V7.44488H2.86341ZM2.86341 6.8722V7.44488H2.29073V6.8722H2.86341ZM2.86341 6.29951V6.8722H2.29073V6.29951H2.86341ZM2.86341 5.72683V6.29951H2.29073V5.72683H2.86341ZM2.86341 5.15415V5.72683H2.29073V5.15415H2.86341ZM1.14537 5.15415V5.72683H0.572683V5.15415H1.14537ZM1.71805 5.15415V5.72683H1.14537V5.15415H1.71805ZM1.71805 5.72683V6.29951H1.14537V5.72683H1.71805ZM1.71805 6.29951V6.8722H1.14537V6.29951H1.71805ZM1.71805 6.8722V7.44488H1.14537V6.8722H1.71805ZM1.71805 7.44488V8.01756H1.14537V7.44488H1.71805ZM7.44488 13.7444V14.3171H6.8722V13.7444H7.44488ZM7.44488 13.1717V13.7444H6.8722V13.1717H7.44488ZM7.44488 12.599V13.1717H6.8722V12.599H7.44488ZM7.44488 12.0263V12.599H6.8722V12.0263H7.44488ZM7.44488 11.4537V12.0263H6.8722V11.4537H7.44488ZM7.44488 10.881V11.4537H6.8722V10.881H7.44488ZM7.44488 10.3083V10.881H6.8722V10.3083H7.44488ZM7.44488 9.73561V10.3083H6.8722V9.73561H7.44488ZM7.44488 9.16293V9.73561H6.8722V9.16293H7.44488ZM7.44488 8.59024V9.16293H6.8722V8.59024H7.44488ZM7.44488 8.01756V8.59024H6.8722V8.01756H7.44488ZM7.44488 7.44488V8.01756H6.8722V7.44488H7.44488ZM7.44488 6.8722V7.44488H6.8722V6.8722H7.44488ZM7.44488 6.29951V6.8722H6.8722V6.29951H7.44488ZM7.44488 5.72683V6.29951H6.8722V5.72683H7.44488ZM8.01756 6.29951V6.8722H7.44488V6.29951H8.01756ZM8.01756 6.8722V7.44488H7.44488V6.8722H8.01756ZM8.01756 7.44488V8.01756H7.44488V7.44488H8.01756ZM8.01756 8.01756V8.59024H7.44488V8.01756H8.01756ZM8.01756 8.59024V9.16293H7.44488V8.59024H8.01756ZM8.01756 9.16293V9.73561H7.44488V9.16293H8.01756ZM8.59024 9.73561V10.3083H8.01756V9.73561H8.59024ZM8.59024 10.3083V10.881H8.01756V10.3083H8.59024ZM8.59024 10.881V11.4537H8.01756V10.881H8.59024ZM8.59024 11.4537V12.0263H8.01756V11.4537H8.59024ZM8.59024 12.0263V12.599H8.01756V12.0263H8.59024ZM8.59024 12.599V13.1717H8.01756V12.599H8.59024ZM8.59024 13.1717V13.7444H8.01756V13.1717H8.59024ZM9.73561 11.4537V12.0263H9.16293V11.4537H9.73561ZM9.73561 10.881V11.4537H9.16293V10.881H9.73561ZM9.73561 10.3083V10.881H9.16293V10.3083H9.73561ZM9.73561 9.73561V10.3083H9.16293V9.73561H9.73561ZM9.16293 9.73561V10.3083H8.59024V9.73561H9.16293ZM9.16293 9.16293V9.73561H8.59024V9.16293H9.16293ZM9.16293 10.3083V10.881H8.59024V10.3083H9.16293ZM9.16293 10.881V11.4537H8.59024V10.881H9.16293ZM9.16293 11.4537V12.0263H8.59024V11.4537H9.16293ZM9.16293 12.0263V12.599H8.59024V12.0263H9.16293ZM9.16293 12.599V13.1717H8.59024V12.599H9.16293ZM8.01756 13.1717V13.7444H7.44488V13.1717H8.01756ZM8.01756 12.599V13.1717H7.44488V12.599H8.01756ZM8.01756 12.0263V12.599H7.44488V12.0263H8.01756ZM8.01756 11.4537V12.0263H7.44488V11.4537H8.01756ZM8.01756 10.881V11.4537H7.44488V10.881H8.01756ZM8.01756 10.3083V10.881H7.44488V10.3083H8.01756ZM8.01756 9.73561V10.3083H7.44488V9.73561H8.01756ZM9.16293 7.44488V8.01756H8.59024V7.44488H9.16293ZM9.73561 8.01756V8.59024H9.16293V8.01756H9.73561ZM9.73561 8.59024V9.16293H9.16293V8.59024H9.73561ZM9.73561 9.16293V9.73561H9.16293V9.16293H9.73561ZM8.59024 6.29951V6.8722H8.01756V6.29951H8.59024ZM8.59024 6.8722V7.44488H8.01756V6.8722H8.59024ZM8.59024 7.44488V8.01756H8.01756V7.44488H8.59024ZM8.59024 8.01756V8.59024H8.01756V8.01756H8.59024ZM8.59024 8.59024V9.16293H8.01756V8.59024H8.59024ZM8.59024 9.16293V9.73561H8.01756V9.16293H8.59024ZM9.16293 8.59024V9.16293H8.59024V8.59024H9.16293ZM9.16293 8.01756V8.59024H8.59024V8.01756H9.16293ZM3.4361 13.7444V14.3171H2.86341V13.7444H3.4361ZM4.00878 13.7444V14.3171H3.4361V13.7444H4.00878ZM4.58146 13.7444V14.3171H4.00878V13.7444H4.58146ZM5.72683 13.7444V14.3171H5.15415V13.7444H5.72683ZM6.29951 13.7444V14.3171H5.72683V13.7444H6.29951ZM6.8722 13.7444V14.3171H6.29951V13.7444H6.8722ZM6.8722 13.1717V13.7444H6.29951V13.1717H6.8722ZM6.29951 13.1717V13.7444H5.72683V13.1717H6.29951ZM5.72683 13.1717V13.7444H5.15415V13.1717H5.72683ZM4.58146 13.1717V13.7444H4.00878V13.1717H4.58146ZM4.00878 13.1717V13.7444H3.4361V13.1717H4.00878ZM3.4361 13.1717V13.7444H2.86341V13.1717H3.4361ZM3.4361 12.599V13.1717H2.86341V12.599H3.4361ZM4.00878 12.599V13.1717H3.4361V12.599H4.00878ZM4.58146 12.599V13.1717H4.00878V12.599H4.58146ZM5.72683 12.599V13.1717H5.15415V12.599H5.72683ZM6.29951 12.599V13.1717H5.72683V12.599H6.29951ZM6.8722 12.599V13.1717H6.29951V12.599H6.8722ZM6.8722 12.0263V12.599H6.29951V12.0263H6.8722ZM6.29951 12.0263V12.599H5.72683V12.0263H6.29951ZM5.72683 12.0263V12.599H5.15415V12.0263H5.72683ZM4.58146 12.0263V12.599H4.00878V12.0263H4.58146ZM4.00878 12.0263V12.599H3.4361V12.0263H4.00878ZM3.4361 12.0263V12.599H2.86341V12.0263H3.4361ZM3.4361 11.4537V12.0263H2.86341V11.4537H3.4361ZM6.8722 11.4537V12.0263H6.29951V11.4537H6.8722ZM9.16293 2.86342V2.29073H9.73561V2.86342H9.16293ZM9.16293 3.4361V2.86342H9.73561V3.4361H9.16293ZM9.16293 4.00878V3.4361H9.73561V4.00878H9.16293ZM8.01756 4.00878V3.4361H8.59024V4.00878H8.01756ZM8.01756 3.4361V2.86342H8.59024V3.4361H8.01756ZM8.01756 2.86342V2.29073H8.59024V2.86342H8.01756ZM8.01756 2.29073V1.71805H8.59024V2.29073H8.01756ZM8.01756 1.71805V1.14537H8.59024V1.71805H8.01756ZM8.01756 1.14537V0.572684H8.59024V1.14537H8.01756ZM6.8722 0.572684V0H7.44488V0.572684H6.8722ZM6.8722 1.14537V0.572684H7.44488V1.14537H6.8722ZM6.8722 1.71805V1.14537H7.44488V1.71805H6.8722ZM6.8722 2.29073V1.71805H7.44488V2.29073H6.8722ZM6.8722 2.86342V2.29073H7.44488V2.86342H6.8722ZM6.8722 3.4361V2.86342H7.44488V3.4361H6.8722ZM6.8722 4.00878V3.4361H7.44488V4.00878H6.8722ZM7.44488 4.00878V3.4361H8.01756V4.00878H7.44488ZM7.44488 3.4361V2.86342H8.01756V3.4361H7.44488ZM7.44488 2.86342V2.29073H8.01756V2.86342H7.44488ZM7.44488 2.29073V1.71805H8.01756V2.29073H7.44488ZM7.44488 1.71805V1.14537H8.01756V1.71805H7.44488ZM7.44488 1.14537V0.572684H8.01756V1.14537H7.44488ZM8.59024 1.71805V1.14537H9.16293V1.71805H8.59024ZM8.59024 2.29073V1.71805H9.16293V2.29073H8.59024ZM8.59024 2.86342V2.29073H9.16293V2.86342H8.59024ZM8.59024 3.4361V2.86342H9.16293V3.4361H8.59024ZM8.59024 4.00878V3.4361H9.16293V4.00878H8.59024ZM2.29073 0.572684V0H2.86341V0.572684H2.29073ZM2.29073 1.14537V0.572684H2.86341V1.14537H2.29073ZM2.29073 1.71805V1.14537H2.86341V1.71805H2.29073ZM2.29073 2.29073V1.71805H2.86341V2.29073H2.29073ZM2.29073 2.86342V2.29073H2.86341V2.86342H2.29073ZM2.29073 3.4361V2.86342H2.86341V3.4361H2.29073ZM2.29073 4.00878V3.4361H2.86341V4.00878H2.29073ZM1.14537 4.00878V3.4361H1.71805V4.00878H1.14537ZM1.14537 3.4361V2.86342H1.71805V3.4361H1.14537ZM1.14537 2.86342V2.29073H1.71805V2.86342H1.14537ZM1.14537 2.29073V1.71805H1.71805V2.29073H1.14537ZM1.14537 1.71805V1.14537H1.71805V1.71805H1.14537ZM1.14537 1.14537V0.572684H1.71805V1.14537H1.14537ZM0 2.86342V2.29073H0.572683V2.86342H0ZM0 3.4361V2.86342H0.572683V3.4361H0ZM0 4.00878V3.4361H0.572683V4.00878H0ZM0.572683 4.00878V3.4361H1.14537V4.00878H0.572683ZM0.572683 3.4361V2.86342H1.14537V3.4361H0.572683ZM0.572683 2.86342V2.29073H1.14537V2.86342H0.572683ZM0.572683 2.29073V1.71805H1.14537V2.29073H0.572683ZM0.572683 1.71805V1.14537H1.14537V1.71805H0.572683ZM1.71805 1.14537V0.572684H2.29073V1.14537H1.71805ZM1.71805 1.71805V1.14537H2.29073V1.71805H1.71805ZM1.71805 2.29073V1.71805H2.29073V2.29073H1.71805ZM1.71805 2.86342V2.29073H2.29073V2.86342H1.71805ZM1.71805 3.4361V2.86342H2.29073V3.4361H1.71805ZM1.71805 4.00878V3.4361H2.29073V4.00878H1.71805ZM6.29951 0.572684V0H6.8722V0.572684H6.29951ZM5.72683 0.572684V0H6.29951V0.572684H5.72683ZM5.15415 0.572684V0H5.72683V0.572684H5.15415ZM4.00878 0.572684V0H4.58146V0.572684H4.00878ZM3.4361 0.572684V0H4.00878V0.572684H3.4361ZM2.86341 0.572684V0H3.4361V0.572684H2.86341ZM2.86341 1.14537V0.572684H3.4361V1.14537H2.86341ZM3.4361 1.14537V0.572684H4.00878V1.14537H3.4361ZM4.00878 1.14537V0.572684H4.58146V1.14537H4.00878ZM5.15415 1.14537V0.572684H5.72683V1.14537H5.15415ZM5.72683 1.14537V0.572684H6.29951V1.14537H5.72683ZM6.29951 1.14537V0.572684H6.8722V1.14537H6.29951ZM6.29951 1.71805V1.14537H6.8722V1.71805H6.29951ZM5.72683 1.71805V1.14537H6.29951V1.71805H5.72683ZM5.15415 1.71805V1.14537H5.72683V1.71805H5.15415ZM4.00878 1.71805V1.14537H4.58146V1.71805H4.00878ZM3.4361 1.71805V1.14537H4.00878V1.71805H3.4361ZM2.86341 1.71805V1.14537H3.4361V1.71805H2.86341ZM2.86341 2.29073V1.71805H3.4361V2.29073H2.86341ZM3.4361 2.29073V1.71805H4.00878V2.29073H3.4361ZM4.00878 2.29073V1.71805H4.58146V2.29073H4.00878ZM5.15415 2.29073V1.71805H5.72683V2.29073H5.15415ZM5.72683 2.29073V1.71805H6.29951V2.29073H5.72683ZM6.29951 2.29073V1.71805H6.8722V2.29073H6.29951ZM6.29951 2.86342V2.29073H6.8722V2.86342H6.29951ZM2.86341 2.86342V2.29073H3.4361V2.86342H2.86341ZM0.572683 4.58146V5.15415H0V4.58146H0.572683ZM1.14537 4.58146V5.15415H0.572683V4.58146H1.14537ZM0.572683 4.00878V4.58146H0V4.00878H0.572683ZM2.29073 4.00878V4.58146H1.71805V4.00878H2.29073ZM2.29073 4.58146V5.15415H1.71805V4.58146H2.29073ZM2.86341 4.58146V5.15415H2.29073V4.58146H2.86341ZM2.86341 4.00878V4.58146H2.29073V4.00878H2.86341ZM1.14537 4.00878V4.58146H0.572683V4.00878H1.14537ZM1.71805 4.00878V4.58146H1.14537V4.00878H1.71805ZM1.71805 4.58146V5.15415H1.14537V4.58146H1.71805ZM4.00878 11.4537V12.0263H3.4361V11.4537H4.00878ZM4.58146 11.4537V12.0263H4.00878V11.4537H4.58146ZM5.72683 11.4537V12.0263H5.15415V11.4537H5.72683ZM6.29951 11.4537V12.0263H5.72683V11.4537H6.29951ZM6.8722 10.881V11.4537H6.29951V10.881H6.8722ZM3.4361 10.881V11.4537H2.86341V10.881H3.4361ZM4.00878 2.29073V2.86342H3.4361V2.29073H4.00878ZM4.58146 2.29073V2.86342H4.00878V2.29073H4.58146ZM5.72683 2.29073V2.86342H5.15415V2.29073H5.72683ZM6.29951 2.29073V2.86342H5.72683V2.29073H6.29951ZM6.8722 2.86342V3.4361H6.29951V2.86342H6.8722ZM3.4361 2.86342V3.4361H2.86341V2.86342H3.4361ZM4.58146 6.8722V7.44488H4.00878V6.8722H4.58146ZM5.72683 6.8722V7.44488H5.15415V6.8722H5.72683ZM6.29951 6.8722V7.44488H5.72683V6.8722H6.29951ZM6.8722 6.8722V7.44488H6.29951V6.8722H6.8722ZM6.8722 7.44488V8.01756H6.29951V7.44488H6.8722ZM6.29951 7.44488V8.01756H5.72683V7.44488H6.29951ZM5.72683 7.44488V8.01756H5.15415V7.44488H5.72683ZM4.58146 7.44488V8.01756H4.00878V7.44488H4.58146ZM4.58146 5.72683V6.29951H4.00878V5.72683H4.58146ZM5.72683 5.72683V6.29951H5.15415V5.72683H5.72683ZM6.29951 5.72683V6.29951H5.72683V5.72683H6.29951ZM6.8722 5.72683V6.29951H6.29951V5.72683H6.8722ZM6.8722 6.29951V6.8722H6.29951V6.29951H6.8722ZM6.29951 6.29951V6.8722H5.72683V6.29951H6.29951ZM5.72683 6.29951V6.8722H5.15415V6.29951H5.72683ZM4.58146 6.29951V6.8722H4.00878V6.29951H4.58146ZM4.58146 8.01756V8.59024H4.00878V8.01756H4.58146ZM5.72683 8.01756V8.59024H5.15415V8.01756H5.72683ZM6.29951 8.01756V8.59024H5.72683V8.01756H6.29951ZM6.8722 8.01756V8.59024H6.29951V8.01756H6.8722ZM9.16293 6.8722V7.44488H8.59024V6.8722H9.16293ZM6.8722 8.59024V9.16293H6.29951V8.59024H6.8722ZM3.4361 5.72683V6.29951H2.86341V5.72683H3.4361ZM4.00878 5.72683V6.29951H3.4361V5.72683H4.00878ZM3.4361 5.15415V5.72683H2.86341V5.15415H3.4361ZM4.00878 6.29951V6.8722H3.4361V6.29951H4.00878ZM4.00878 6.8722V7.44488H3.4361V6.8722H4.00878ZM4.00878 7.44488V8.01756H3.4361V7.44488H4.00878ZM4.00878 8.01756V8.59024H3.4361V8.01756H4.00878ZM3.4361 8.01756V8.59024H2.86341V8.01756H3.4361ZM3.4361 7.44488V8.01756H2.86341V7.44488H3.4361ZM3.4361 6.8722V7.44488H2.86341V6.8722H3.4361ZM3.4361 6.29951V6.8722H2.86341V6.29951H3.4361ZM5.15415 0V0.572684H4.58146V0H5.15415ZM5.15415 0.572684V1.14537H4.58146V0.572684H5.15415ZM5.15415 1.14537V1.71805H4.58146V1.14537H5.15415ZM5.15415 1.71805V2.29073H4.58146V1.71805H5.15415ZM5.15415 2.29073V2.86342H4.58146V2.29073H5.15415ZM5.15415 5.72683V6.29951H4.58146V5.72683H5.15415ZM5.15415 6.29951V6.8722H4.58146V6.29951H5.15415ZM5.15415 6.8722V7.44488H4.58146V6.8722H5.15415ZM5.15415 7.44488V8.01756H4.58146V7.44488H5.15415ZM5.15415 8.01756V8.59024H4.58146V8.01756H5.15415ZM5.15415 11.4537V12.0263H4.58146V11.4537H5.15415ZM5.15415 12.0263V12.599H4.58146V12.0263H5.15415ZM5.15415 12.599V13.1717H4.58146V12.599H5.15415ZM5.15415 13.1717V13.7444H4.58146V13.1717H5.15415ZM5.15415 13.7444V14.3171H4.58146V13.7444H5.15415Z" fill="#4AA37C"/>
</svg>
