<svg xmlns="http://www.w3.org/2000/svg" width="44" height="44" fill="none"><g clip-path="url(#clip0_24_3678)"><rect width="15" height="30.5" x="27.98" y="5.41" stroke="#fff" stroke-width="2" rx="5.67" transform="rotate(45 27.98 5.41)"/><circle cx="12.33" cy="26.78" r="1.15" fill="#fff" fill-opacity=".7" transform="rotate(-45 12.33 26.78)"/><circle cx="14.57" cy="24.54" r="1.15" fill="#fff" fill-opacity=".7" transform="rotate(-45 14.57 24.54)"/><circle cx="16.8" cy="22.31" r="1.15" fill="#fff" fill-opacity=".7" transform="rotate(-45 16.8 22.3)"/><circle cx="14.77" cy="29.22" r="1.15" fill="#fff" fill-opacity=".7" transform="rotate(-45 14.77 29.22)"/><circle cx="17.01" cy="26.99" r="1.15" fill="#fff" fill-opacity=".7" transform="rotate(-45 17.01 26.99)"/><circle cx="19.25" cy="24.75" r="1.15" fill="#fff" fill-opacity=".7" transform="rotate(-45 19.25 24.75)"/><circle cx="17.22" cy="31.67" r="1.15" fill="#fff" fill-opacity=".7" transform="rotate(-45 17.22 31.67)"/><circle cx="19.45" cy="29.43" r="1.15" fill="#fff" fill-opacity=".7" transform="rotate(-45 19.45 29.43)"/><circle cx="21.69" cy="27.2" r="1.15" fill="#fff" fill-opacity=".7" transform="rotate(-45 21.7 27.2)"/></g><defs><clipPath id="clip0_24_3678"><path fill="#fff" d="M0 0h44v44H0z"/></clipPath></defs></svg>