<svg xmlns="http://www.w3.org/2000/svg" width="44" height="44" fill="none"><g clip-path="url(#clip0_19_2735)"><mask id="mask0_19_2735" width="34" height="24" x="5" y="14" maskUnits="userSpaceOnUse" style="mask-type:alpha"><path fill="#fff" stroke="#3C3C3C" stroke-width="2.81" d="m24.4 17.23 9.09 6.07c1.32.88 2.22 1.5 2.86 2 .56.46.77.73.86.91l.03.07a2.1 2.1 0 0 1 0 1.5l-.09.2c-.08.16-.3.42-.99.87-.68.45-1.65.96-3.05 1.7l-9.28 4.87c-1.02.54-1.38.7-1.64.78l-.11.02a2.1 2.1 0 0 1-.68 0l-.22-.05a6.95 6.95 0 0 1-1.66-.98l-9.09-6.07a43.26 43.26 0 0 1-2.86-2 3.1 3.1 0 0 1-.86-.9l-.03-.07a2.11 2.11 0 0 1 0-1.5l.09-.2c.08-.16.3-.43.99-.87.68-.45 1.65-.96 3.05-1.7l9.28-4.87a9.39 9.39 0 0 1 1.64-.78l.11-.02c.23-.04.45-.04.68 0l.22.05c.28.07.56.24 1.66.97Z"/></mask><g fill="#484848" mask="url(#mask0_19_2735)"><path d="M39.3 18.93a2.4 2.4 0 0 1-2.1-.04c-.57-.33-.56-.85.03-1.17a2.4 2.4 0 0 1 2.1.04c.57.33.56.85-.02 1.17ZM42.16 20.57a2.4 2.4 0 0 1-2.1-.03c-.57-.33-.56-.85.02-1.17a2.4 2.4 0 0 1 2.1.03c.58.34.57.86-.02 1.17ZM45.02 22.22a2.4 2.4 0 0 1-2.1-.03c-.57-.33-.57-.85.02-1.17a2.4 2.4 0 0 1 2.1.03c.57.34.57.86-.02 1.17ZM47.88 23.87a2.4 2.4 0 0 1-2.1-.03c-.58-.33-.57-.85.02-1.17a2.4 2.4 0 0 1 2.1.03c.57.34.56.86-.02 1.17ZM50.74 25.52a2.4 2.4 0 0 1-2.1-.03c-.58-.33-.57-.85.01-1.17a2.4 2.4 0 0 1 2.1.03c.58.33.57.86-.01 1.17ZM38.99 22.28a2.4 2.4 0 0 1-2.1-.03c-.58-.33-.57-.86.01-1.17a2.4 2.4 0 0 1 2.1.03c.58.33.57.86-.01 1.17ZM41.84 23.93a2.4 2.4 0 0 1-2.1-.03c-.57-.33-.56-.86.02-1.17a2.4 2.4 0 0 1 2.1.03c.58.33.57.86-.02 1.17ZM44.7 25.58a2.4 2.4 0 0 1-2.1-.03c-.57-.33-.57-.86.02-1.17a2.4 2.4 0 0 1 2.1.03c.57.33.57.86-.02 1.17ZM47.56 27.23a2.4 2.4 0 0 1-2.1-.03c-.58-.33-.57-.86.02-1.17a2.4 2.4 0 0 1 2.1.03c.57.33.56.86-.02 1.17ZM35.81 24a2.4 2.4 0 0 1-2.1-.04c-.58-.33-.57-.86.02-1.17a2.4 2.4 0 0 1 2.1.03c.57.33.57.86-.02 1.17ZM38.67 25.64a2.4 2.4 0 0 1-2.1-.03c-.58-.33-.57-.86.01-1.17a2.4 2.4 0 0 1 2.1.03c.58.33.57.86-.01 1.17ZM41.52 27.29a2.4 2.4 0 0 1-2.1-.03c-.57-.33-.56-.86.02-1.17a2.4 2.4 0 0 1 2.1.03c.58.33.57.86-.02 1.17ZM44.38 28.94a2.4 2.4 0 0 1-2.1-.03c-.57-.34-.57-.86.02-1.17a2.4 2.4 0 0 1 2.1.03c.57.33.57.85-.02 1.17ZM32.63 25.7a2.4 2.4 0 0 1-2.1-.03c-.57-.34-.56-.86.02-1.17a2.4 2.4 0 0 1 2.1.03c.58.33.57.85-.02 1.17ZM35.49 27.35a2.4 2.4 0 0 1-2.1-.03c-.58-.34-.57-.86.02-1.17a2.4 2.4 0 0 1 2.1.03c.57.33.56.85-.02 1.17ZM38.35 29a2.4 2.4 0 0 1-2.1-.03c-.58-.34-.57-.86.01-1.17a2.4 2.4 0 0 1 2.1.03c.58.33.57.85-.01 1.17ZM41.2 30.65a2.4 2.4 0 0 1-2.1-.04c-.57-.33-.56-.85.02-1.17a2.4 2.4 0 0 1 2.1.04c.58.33.57.85-.02 1.17ZM29.46 27.4a2.4 2.4 0 0 1-2.1-.03c-.58-.33-.57-.85.01-1.17a2.4 2.4 0 0 1 2.1.04c.58.33.57.85-.01 1.17ZM32.31 29.06a2.4 2.4 0 0 1-2.1-.04c-.57-.33-.56-.85.02-1.17a2.4 2.4 0 0 1 2.1.04c.58.33.57.85-.02 1.17ZM35.17 30.7a2.4 2.4 0 0 1-2.1-.03c-.58-.33-.57-.85.02-1.17a2.4 2.4 0 0 1 2.1.03c.57.34.56.86-.02 1.18ZM38.03 32.35a2.4 2.4 0 0 1-2.1-.03c-.58-.33-.57-.85.01-1.17a2.4 2.4 0 0 1 2.1.03c.58.34.57.86-.01 1.17ZM26.28 29.11a2.4 2.4 0 0 1-2.1-.03c-.58-.33-.57-.85.02-1.17a2.4 2.4 0 0 1 2.1.03c.57.34.56.86-.02 1.17ZM29.14 30.76a2.4 2.4 0 0 1-2.1-.03c-.58-.33-.57-.85.01-1.17a2.4 2.4 0 0 1 2.1.03c.58.34.57.86-.01 1.17ZM32 32.41a2.4 2.4 0 0 1-2.1-.03c-.58-.33-.57-.85.01-1.17a2.4 2.4 0 0 1 2.1.03c.58.33.57.86-.02 1.17ZM34.85 34.06a2.4 2.4 0 0 1-2.1-.03c-.58-.33-.57-.86.02-1.17a2.4 2.4 0 0 1 2.1.03c.57.33.56.86-.02 1.17ZM5.96 20.93a2.4 2.4 0 0 1-2.1-.04c-.58-.33-.57-.85.02-1.17a2.4 2.4 0 0 1 2.1.04c.57.33.57.85-.02 1.17ZM8.82 22.58a2.4 2.4 0 0 1-2.1-.04c-.58-.33-.57-.85.01-1.17a2.4 2.4 0 0 1 2.1.03c.58.34.57.86-.01 1.18ZM11.67 24.22a2.4 2.4 0 0 1-2.1-.03c-.57-.33-.56-.85.02-1.17a2.4 2.4 0 0 1 2.1.03c.58.34.57.86-.02 1.17ZM14.53 25.87a2.4 2.4 0 0 1-2.1-.03c-.57-.33-.57-.85.02-1.17a2.4 2.4 0 0 1 2.1.03c.57.34.57.86-.02 1.17ZM17.39 27.52a2.4 2.4 0 0 1-2.1-.03c-.58-.33-.57-.85.02-1.17a2.4 2.4 0 0 1 2.1.03c.57.33.56.86-.02 1.17ZM20.24 29.17a2.4 2.4 0 0 1-2.1-.03c-.57-.33-.56-.86.02-1.17a2.4 2.4 0 0 1 2.1.03c.58.33.57.86-.02 1.17ZM23.1 30.82a2.4 2.4 0 0 1-2.1-.03c-.57-.33-.57-.86.02-1.17a2.4 2.4 0 0 1 2.1.03c.57.33.57.86-.02 1.17ZM25.96 32.47a2.4 2.4 0 0 1-2.1-.03c-.58-.33-.57-.86.02-1.17a2.4 2.4 0 0 1 2.1.03c.57.33.56.86-.02 1.17ZM28.82 34.12a2.4 2.4 0 0 1-2.1-.03c-.58-.33-.57-.86.01-1.17a2.4 2.4 0 0 1 2.1.03c.58.33.57.86-.01 1.17ZM31.67 35.77a2.4 2.4 0 0 1-2.1-.03c-.57-.33-.57-.86.02-1.17a2.4 2.4 0 0 1 2.1.03c.57.33.57.86-.02 1.17ZM2.78 22.63a2.4 2.4 0 0 1-2.1-.03c-.57-.33-.56-.85.02-1.17a2.4 2.4 0 0 1 2.1.03c.58.34.57.86-.02 1.17ZM5.64 24.28a2.4 2.4 0 0 1-2.1-.03c-.58-.33-.57-.86.02-1.17a2.4 2.4 0 0 1 2.1.03c.57.33.56.86-.02 1.17ZM8.5 25.93a2.4 2.4 0 0 1-2.1-.03c-.58-.33-.57-.86.01-1.17a2.4 2.4 0 0 1 2.1.03c.58.33.57.86-.01 1.17ZM11.35 27.58a2.4 2.4 0 0 1-2.1-.03c-.57-.33-.56-.86.02-1.17a2.4 2.4 0 0 1 2.1.03c.58.33.57.86-.02 1.17ZM14.21 29.23a2.4 2.4 0 0 1-2.1-.03c-.57-.33-.57-.86.02-1.17a2.4 2.4 0 0 1 2.1.03c.57.33.57.86-.02 1.17ZM17.07 30.88a2.4 2.4 0 0 1-2.1-.03c-.58-.33-.57-.86.01-1.17a2.4 2.4 0 0 1 2.1.03c.58.33.57.86-.01 1.17ZM19.92 32.53a2.4 2.4 0 0 1-2.1-.03c-.57-.33-.56-.86.02-1.17a2.4 2.4 0 0 1 2.1.03c.58.33.57.86-.02 1.17ZM22.78 34.18a2.4 2.4 0 0 1-2.1-.03c-.57-.33-.57-.86.02-1.17a2.4 2.4 0 0 1 2.1.03c.57.33.57.86-.02 1.17ZM25.64 35.83a2.4 2.4 0 0 1-2.1-.03c-.58-.34-.57-.86.02-1.17a2.4 2.4 0 0 1 2.1.03c.57.33.56.85-.02 1.17ZM28.5 37.48a2.4 2.4 0 0 1-2.1-.03c-.58-.34-.57-.86.01-1.17a2.4 2.4 0 0 1 2.1.03c.58.33.57.85-.02 1.17ZM-.4 24.34a2.4 2.4 0 0 1-2.1-.03c-.57-.33-.56-.86.02-1.17a2.4 2.4 0 0 1 2.1.03c.58.33.57.86-.01 1.17ZM2.46 26a2.4 2.4 0 0 1-2.1-.04c-.57-.33-.56-.86.02-1.17a2.4 2.4 0 0 1 2.1.03c.58.33.57.86-.02 1.17ZM5.32 27.64a2.4 2.4 0 0 1-2.1-.03c-.58-.33-.57-.86.02-1.17a2.4 2.4 0 0 1 2.1.03c.57.33.56.86-.02 1.17ZM8.18 29.29a2.4 2.4 0 0 1-2.1-.03c-.58-.33-.57-.86.01-1.17a2.4 2.4 0 0 1 2.1.03c.58.33.57.86-.01 1.17ZM11.03 30.94a2.4 2.4 0 0 1-2.1-.03c-.57-.33-.56-.86.02-1.17a2.4 2.4 0 0 1 2.1.03c.58.33.57.85-.02 1.17ZM13.89 32.59a2.4 2.4 0 0 1-2.1-.03c-.58-.34-.57-.86.02-1.17a2.4 2.4 0 0 1 2.1.03c.57.33.57.85-.02 1.17ZM16.75 34.24a2.4 2.4 0 0 1-2.1-.03c-.58-.34-.57-.86.01-1.17a2.4 2.4 0 0 1 2.1.03c.58.33.57.85-.01 1.17ZM19.6 35.89a2.4 2.4 0 0 1-2.1-.03c-.57-.34-.56-.86.02-1.18a2.4 2.4 0 0 1 2.1.04c.58.33.57.85-.02 1.17ZM22.46 37.54a2.4 2.4 0 0 1-2.1-.04c-.57-.33-.57-.85.02-1.17a2.4 2.4 0 0 1 2.1.04c.57.33.57.85-.02 1.17ZM25.32 39.19a2.4 2.4 0 0 1-2.1-.04c-.58-.33-.57-.85.02-1.17a2.4 2.4 0 0 1 2.1.04c.57.33.56.85-.02 1.17ZM-3.57 26.05a2.4 2.4 0 0 1-2.1-.03c-.58-.33-.57-.86.02-1.17a2.4 2.4 0 0 1 2.1.03c.57.33.56.85-.02 1.17ZM-.71 27.7a2.4 2.4 0 0 1-2.1-.03c-.58-.34-.57-.86.01-1.17a2.4 2.4 0 0 1 2.1.03c.58.33.57.85-.01 1.17ZM2.14 29.35a2.4 2.4 0 0 1-2.1-.03c-.57-.34-.56-.86.02-1.17a2.4 2.4 0 0 1 2.1.03c.58.33.57.85-.02 1.17ZM5 31a2.4 2.4 0 0 1-2.1-.03c-.58-.34-.57-.86.02-1.17a2.4 2.4 0 0 1 2.1.03c.57.33.56.85-.02 1.17ZM7.86 32.65a2.4 2.4 0 0 1-2.1-.03c-.58-.34-.57-.86.01-1.18a2.4 2.4 0 0 1 2.1.04c.58.33.57.85-.01 1.17ZM10.71 34.3a2.4 2.4 0 0 1-2.1-.04c-.57-.33-.56-.85.02-1.17a2.4 2.4 0 0 1 2.1.04c.58.33.57.85-.02 1.17ZM13.57 35.95a2.4 2.4 0 0 1-2.1-.04c-.58-.33-.57-.85.02-1.17a2.4 2.4 0 0 1 2.1.04c.57.33.56.85-.02 1.17ZM16.43 37.6a2.4 2.4 0 0 1-2.1-.04c-.58-.33-.57-.85.01-1.17a2.4 2.4 0 0 1 2.1.03c.58.34.57.86-.01 1.18ZM19.28 39.24a2.4 2.4 0 0 1-2.1-.03c-.57-.33-.56-.85.02-1.17a2.4 2.4 0 0 1 2.1.03c.58.34.57.86-.02 1.17ZM22.14 40.9a2.4 2.4 0 0 1-2.1-.04c-.57-.33-.57-.85.02-1.17a2.4 2.4 0 0 1 2.1.03c.57.34.57.86-.02 1.17Z"/></g><path stroke="#3C3C3C" stroke-width="2" d="m24.62 9.87 9.1 6.07c1.3.87 2.23 1.5 2.88 2.02.58.47.85.79.97 1.04l.05.1c.22.58.21 1.22 0 1.79l-.1.24c-.14.26-.43.57-1.13 1.03-.71.46-1.7.98-3.1 1.71l-9.27 4.88c-1 .53-1.4.73-1.74.81l-.14.03c-.26.04-.54.04-.8 0l-.27-.06c-.35-.1-.7-.31-1.77-1.03l-9.1-6.07a43.51 43.51 0 0 1-2.88-2.02 3.45 3.45 0 0 1-.97-1.04l-.05-.1a2.51 2.51 0 0 1 0-1.79l.1-.24c.14-.26.43-.57 1.14-1.03.7-.46 1.69-.98 3.08-1.71l9.28-4.88c1-.52 1.4-.73 1.74-.81l.14-.03c.26-.04.54-.04.8 0l.27.06c.35.1.7.31 1.77 1.03Z"/></g><defs><clipPath id="clip0_19_2735"><path fill="#fff" d="M0 0h44v44H0z"/></clipPath></defs></svg>