<svg xmlns="http://www.w3.org/2000/svg" width="44" height="44" fill="none"><path fill="#fff" d="M6.98 15v-1.27h1.97v-4.9h-.1l-1.48 1.95-1-.78L8.1 7.7h2.41v6.03h1.55V15H6.98ZM11.8 25.26H6.56v-1.43l2.3-1.92c.4-.34.7-.63.87-.89.17-.25.26-.51.26-.8v-.1c0-.3-.1-.53-.28-.69a1.07 1.07 0 0 0-.73-.24c-.35 0-.62.1-.8.3-.2.2-.32.45-.4.73L6.4 19.7c.08-.26.2-.5.34-.72.15-.23.33-.43.56-.6a3.14 3.14 0 0 1 1.83-.55c.4 0 .75.06 1.07.17.31.11.58.27.8.46.2.2.37.43.48.7.12.27.17.56.17.87 0 .3-.05.59-.16.85-.1.25-.23.49-.41.71-.18.22-.39.44-.63.65l-.77.63-1.39 1.07h3.52v1.32ZM8.86 31.11c.4 0 .7-.08.88-.23a.7.7 0 0 0 .28-.57v-.07c0-.26-.1-.47-.27-.63-.18-.16-.43-.24-.76-.24-.3 0-.58.08-.84.23-.26.15-.48.36-.66.64l-1-.92a3.43 3.43 0 0 1 1.02-.88c.2-.11.43-.2.68-.25a3.96 3.96 0 0 1 1.95.04c.31.1.59.22.81.4a1.67 1.67 0 0 1 .72 1.4 1.65 1.65 0 0 1-.43 1.12c-.12.14-.27.26-.45.35a2 2 0 0 1-.54.17v.07c.45.07.82.26 1.1.56.3.3.46.7.46 1.2a1.92 1.92 0 0 1-.79 1.57 2.7 2.7 0 0 1-.9.44 4.35 4.35 0 0 1-2.15.03 2.81 2.81 0 0 1-1.72-1.29l1.16-.9c.16.3.36.55.6.74.24.2.57.29.97.29.38 0 .67-.1.87-.27a.9.9 0 0 0 .3-.72v-.07c0-.3-.11-.53-.34-.67a1.72 1.72 0 0 0-.96-.23h-.68V31.1h.69Z"/><rect width="22" height="6" x="16" y="8" fill="#fff" fill-opacity=".7" rx="2"/><circle cx="17.21" cy="19.21" r="1.21" fill="#fff" fill-opacity=".7"/><circle cx="20.52" cy="19.21" r="1.21" fill="#fff" fill-opacity=".7"/><circle cx="23.83" cy="19.21" r="1.21" fill="#fff" fill-opacity=".7"/><circle cx="27.14" cy="19.21" r="1.21" fill="#fff" fill-opacity=".7"/><circle cx="30.45" cy="19.21" r="1.21" fill="#fff" fill-opacity=".7"/><circle cx="33.76" cy="19.21" r="1.21" fill="#fff" fill-opacity=".7"/><circle cx="37.07" cy="19.21" r="1.21" fill="#fff" fill-opacity=".7"/><circle cx="17.21" cy="22.83" r="1.21" fill="#fff" fill-opacity=".7"/><circle cx="20.52" cy="22.83" r="1.21" fill="#fff" fill-opacity=".7"/><circle cx="23.83" cy="22.83" r="1.21" fill="#fff" fill-opacity=".7"/><circle cx="27.14" cy="22.83" r="1.21" fill="#fff" fill-opacity=".7"/><circle cx="30.45" cy="22.83" r="1.21" fill="#fff" fill-opacity=".7"/><circle cx="33.76" cy="22.83" r="1.21" fill="#fff" fill-opacity=".7"/><circle cx="37.07" cy="22.83" r="1.21" fill="#fff" fill-opacity=".7"/><circle cx="17.21" cy="30.21" r="1.21" fill="#fff" fill-opacity=".7"/><circle cx="20.52" cy="30.21" r="1.21" fill="#fff" fill-opacity=".7"/><circle cx="23.83" cy="30.21" r="1.21" fill="#fff" fill-opacity=".7"/><circle cx="27.14" cy="30.21" r="1.21" fill="#fff" fill-opacity=".7"/><circle cx="30.45" cy="30.21" r="1.21" fill="#fff" fill-opacity=".7"/><circle cx="33.76" cy="30.21" r="1.21" fill="#fff" fill-opacity=".7"/><circle cx="37.07" cy="30.21" r="1.21" fill="#fff" fill-opacity=".7"/><circle cx="17.21" cy="33.83" r="1.21" fill="#fff" fill-opacity=".7"/><circle cx="20.52" cy="33.83" r="1.21" fill="#fff" fill-opacity=".7"/><circle cx="23.83" cy="33.83" r="1.21" fill="#fff" fill-opacity=".7"/><circle cx="27.14" cy="33.83" r="1.21" fill="#fff" fill-opacity=".7"/><circle cx="30.45" cy="33.83" r="1.21" fill="#fff" fill-opacity=".7"/><circle cx="33.76" cy="33.83" r="1.21" fill="#fff" fill-opacity=".7"/><circle cx="37.07" cy="33.83" r="1.21" fill="#fff" fill-opacity=".7"/></svg>