<svg xmlns="http://www.w3.org/2000/svg" width="44" height="44" fill="none"><circle cx="12.26" cy="16.36" r="1.26" fill="#fff" fill-opacity=".7"/><circle cx="15.71" cy="16.36" r="1.26" fill="#fff" fill-opacity=".7"/><circle cx="19.17" cy="16.36" r="1.26" fill="#fff" fill-opacity=".7"/><circle cx="22.62" cy="16.36" r="1.26" fill="#fff" fill-opacity=".7"/><circle cx="26.07" cy="16.36" r="1.26" fill="#fff" fill-opacity=".7"/><circle cx="29.53" cy="16.36" r="1.26" fill="#fff" fill-opacity=".7"/><circle cx="12.26" cy="20.14" r="1.26" fill="#fff" fill-opacity=".7"/><circle cx="15.71" cy="20.14" r="1.26" fill="#fff" fill-opacity=".7"/><circle cx="19.17" cy="20.14" r="1.26" fill="#fff" fill-opacity=".7"/><circle cx="22.62" cy="20.14" r="1.26" fill="#fff" fill-opacity=".7"/><circle cx="26.07" cy="20.14" r="1.26" fill="#fff" fill-opacity=".7"/><circle cx="29.53" cy="20.14" r="1.26" fill="#fff" fill-opacity=".7"/><circle cx="32.98" cy="20.14" r="1.26" fill="#fff" fill-opacity=".7"/><circle cx="29.53" cy="23.92" r="1.26" fill="#fff" fill-opacity=".7"/><circle cx="32.98" cy="23.92" r="1.26" fill="#fff" fill-opacity=".7"/><circle cx="29.53" cy="27.69" r="1.26" fill="#fff" fill-opacity=".7"/><circle cx="32.98" cy="27.69" r="1.26" fill="#fff" fill-opacity=".7"/><circle cx="29.53" cy="31.47" r="1.26" fill="#fff" fill-opacity=".7"/><circle cx="32.98" cy="31.47" r="1.26" fill="#fff" fill-opacity=".7"/><circle cx="29.53" cy="35.25" r="1.26" fill="#fff" fill-opacity=".7"/><circle cx="32.98" cy="35.25" r="1.26" fill="#fff" fill-opacity=".7"/><path stroke="#fff" stroke-width="2" d="m18 27-8.3-8.3a1 1 0 0 1 0-1.4L18 9"/></svg>