<svg xmlns="http://www.w3.org/2000/svg" width="44" height="44" fill="none"><path fill="#3C3C3C" d="M15.25 10.54V20h-2.47v-9.46h-3.3V8.52h9.07v2.02h-3.3Z"/><circle cx="23.45" cy="9.45" r="1.21" fill="#484848"/><circle cx="26.76" cy="9.45" r="1.21" fill="#484848"/><circle cx="30.07" cy="9.45" r="1.21" fill="#484848"/><circle cx="33.39" cy="9.45" r="1.21" fill="#484848"/><circle cx="23.45" cy="13.07" r="1.21" fill="#484848"/><circle cx="26.76" cy="13.07" r="1.21" fill="#484848"/><circle cx="30.07" cy="13.07" r="1.21" fill="#484848"/><circle cx="33.39" cy="13.07" r="1.21" fill="#484848"/><circle cx="23.45" cy="16.69" r="1.21" fill="#484848"/><circle cx="26.76" cy="16.69" r="1.21" fill="#484848"/><circle cx="30.07" cy="16.69" r="1.21" fill="#484848"/><circle cx="33.39" cy="16.69" r="1.21" fill="#484848"/><circle cx="23.45" cy="20.31" r="1.21" fill="#484848"/><circle cx="26.76" cy="20.31" r="1.21" fill="#484848"/><circle cx="30.07" cy="20.31" r="1.21" fill="#484848"/><circle cx="33.39" cy="20.31" r="1.21" fill="#484848"/><circle cx="10.21" cy="23.93" r="1.21" fill="#484848"/><circle cx="13.52" cy="23.93" r="1.21" fill="#484848"/><circle cx="16.83" cy="23.93" r="1.21" fill="#484848"/><circle cx="20.14" cy="23.93" r="1.21" fill="#484848"/><circle cx="23.45" cy="23.93" r="1.21" fill="#484848"/><circle cx="26.76" cy="23.93" r="1.21" fill="#484848"/><circle cx="30.07" cy="23.93" r="1.21" fill="#484848"/><circle cx="33.39" cy="23.93" r="1.21" fill="#484848"/><circle cx="10.21" cy="27.55" r="1.21" fill="#484848"/><circle cx="13.52" cy="27.55" r="1.21" fill="#484848"/><circle cx="16.83" cy="27.55" r="1.21" fill="#484848"/><circle cx="20.14" cy="27.55" r="1.21" fill="#484848"/><circle cx="23.45" cy="27.55" r="1.21" fill="#484848"/><circle cx="26.76" cy="27.55" r="1.21" fill="#484848"/><circle cx="30.07" cy="27.55" r="1.21" fill="#484848"/><circle cx="33.39" cy="27.55" r="1.21" fill="#484848"/><circle cx="10.21" cy="31.17" r="1.21" fill="#484848"/><circle cx="13.52" cy="31.17" r="1.21" fill="#484848"/><circle cx="16.83" cy="31.17" r="1.21" fill="#484848"/><circle cx="20.14" cy="31.17" r="1.21" fill="#484848"/><circle cx="23.45" cy="31.17" r="1.21" fill="#484848"/><circle cx="26.76" cy="31.17" r="1.21" fill="#484848"/><circle cx="30.07" cy="31.17" r="1.21" fill="#484848"/><circle cx="33.39" cy="31.17" r="1.21" fill="#484848"/><circle cx="10.21" cy="34.79" r="1.21" fill="#484848"/><circle cx="13.52" cy="34.79" r="1.21" fill="#484848"/><circle cx="16.83" cy="34.79" r="1.21" fill="#484848"/><circle cx="20.14" cy="34.79" r="1.21" fill="#484848"/><circle cx="23.45" cy="34.79" r="1.21" fill="#484848"/><circle cx="26.76" cy="34.79" r="1.21" fill="#484848"/><circle cx="30.07" cy="34.79" r="1.21" fill="#484848"/><circle cx="33.39" cy="34.79" r="1.21" fill="#484848"/></svg>